<?xml version="1.0" encoding="utf-8"?>
<!-- Generator: Adobe Illustrator 16.0.0, SVG Export Plug-In . SVG Version: 6.00 Build 0)  -->
<!DOCTYPE svg PUBLIC "-//W3C//DTD SVG 1.1//EN" "http://www.w3.org/Graphics/SVG/1.1/DTD/svg11.dtd">
<svg version="1.1" id="Layer_1" xmlns="http://www.w3.org/2000/svg" xmlns:xlink="http://www.w3.org/1999/xlink" x="0px" y="0px"
	 width="931px" height="371px" viewBox="0 0 931 371" enable-background="new 0 0 931 371" xml:space="preserve">
<g>
	<g>
		<path fill="#101820" d="M382.688,229.259c-1.298,4.195-4.777,6.91-10.13,6.91c-6.334,0-11.327-4.813-11.327-11.836
			c0-7.019,4.993-11.832,11.436-11.832c4.81,0,8.139,2.317,9.625,6.008l-2.644,1.737c-0.94-3.007-3.29-5.027-6.981-5.027
			c-4.779,0-8.145,3.508-8.145,9.114c0,5.609,3.4,9.121,8.036,9.121c4.125,0,6.475-2.098,7.31-5.72L382.688,229.259z"/>
		<path fill="#101820" d="M399.423,215.254c-4.918,0-8.251,3.508-8.251,9.079c0,5.575,3.333,9.087,8.251,9.087
			c4.926,0,8.291-3.512,8.291-9.087C407.714,218.762,404.349,215.254,399.423,215.254 M399.423,236.169
			c-6.62,0-11.542-4.812-11.542-11.836c0-7.018,4.922-11.833,11.542-11.833c6.659,0,11.581,4.815,11.581,11.833
			C411.004,231.357,406.082,236.169,399.423,236.169"/>
		<polygon fill="#101820" points="442.163,212.938 437.022,231.827 436.878,231.827 431.774,212.938 428.731,212.938 
			423.708,231.752 423.562,231.752 418.35,212.938 415.235,212.938 421.53,235.736 425.221,235.736 430.146,217.532 
			430.292,217.532 435.179,235.736 438.903,235.736 445.163,212.938 		"/>
		<path fill="#101820" d="M460.974,215.254c-4.918,0-8.248,3.508-8.248,9.079c0,5.575,3.33,9.087,8.248,9.087
			c4.926,0,8.291-3.512,8.291-9.087C469.265,218.762,465.899,215.254,460.974,215.254 M460.974,236.169
			c-6.617,0-11.539-4.812-11.539-11.836c0-7.018,4.922-11.833,11.539-11.833c6.662,0,11.588,4.815,11.588,11.833
			C472.562,231.357,467.636,236.169,460.974,236.169"/>
		<path fill="#101820" d="M482.567,223.215h6.479c3.836,0,5.646-1.231,5.646-3.835c0-2.461-1.592-3.802-5.432-3.802h-6.693V223.215z
			 M495.489,235.735c-0.83-0.364-1.307-2.351-1.521-4.598c-0.291-3.544-1.373-5.391-4.596-5.391h-6.805v9.988h-3.146v-22.798h10.096
			c5.756,0,8.396,2.492,8.396,6.332c0,2.857-2.568,4.992-5.572,5.212c2.643,0.433,4.016,2.53,4.416,5.208
			c0.611,3.806,1.34,5.066,2.533,5.789v0.257H495.489z"/>
		<polygon fill="#101820" points="520.638,212.938 508.772,224.877 508.772,212.938 505.583,212.938 505.583,235.736 
			508.772,235.736 508.772,228.353 512.747,224.333 521.759,235.736 525.702,235.736 515.062,222.344 524.509,212.938 		"/>
		<rect x="531.31" y="212.938" fill="#101820" width="3.184" height="22.799"/>
		<polygon fill="#101820" points="558.696,212.938 558.696,230.594 545.958,212.938 542.444,212.938 542.444,235.736 
			545.378,235.736 545.378,217.063 558.987,235.736 561.63,235.736 561.63,212.938 		"/>
		<path fill="#101820" d="M586.62,220.207c-0.83-3.002-3.299-4.989-7.17-4.989c-4.697,0-8.027,3.509-8.027,9.154
			s3.365,9.122,8.248,9.122c4.416,0,7.059-2.753,7.455-6.626h-8.828v-2.386h11.688v11.254h-2.318l-0.471-4.128
			c-1.008,2.896-4.264,4.561-7.887,4.561c-6.404,0-11.182-4.74-11.182-11.836c0-7.018,5.027-11.833,11.322-11.833
			c4.996,0,8.4,2.173,9.85,5.899L586.62,220.207z"/>
	</g>
	<g>
		<path fill="#101820" d="M468.02,175.429c3.473,5.798,9.879,8.811,16.5,8.811c6.025,0,10.549-2.185,10.549-6.328
			c0-3.466-2.943-4.593-6.928-5.5l-10.697-2.181c-7.238-1.51-12.961-5.199-12.961-13.108c0-8.587,7.385-14.461,18.531-14.461
			c9.189,0,15.895,3.767,20.037,9.036l-6.398,6.18c-2.49-4.297-6.932-7.536-13.639-7.536c-5.27,0-9.043,2.261-9.043,6.178
			c0,3.391,2.789,4.445,6.555,5.273l9.871,2.107c8.889,1.887,14.16,5.653,14.16,13.636c0,9.191-8.885,14.389-20.037,14.389
			c-9.865,0-18.002-3.616-22.447-9.643L468.02,175.429z"/>
		<path fill="#101820" d="M541.623,175.429c3.473,5.798,9.879,8.811,16.5,8.811c6.027,0,10.549-2.185,10.549-6.328
			c0-3.466-2.941-4.593-6.928-5.5l-10.697-2.181c-7.238-1.51-12.961-5.199-12.961-13.108c0-8.587,7.387-14.461,18.531-14.461
			c9.191,0,15.895,3.767,20.039,9.036l-6.398,6.18c-2.492-4.297-6.932-7.536-13.641-7.536c-5.268,0-9.043,2.261-9.043,6.178
			c0,3.391,2.789,4.445,6.557,5.273l9.869,2.107c8.889,1.887,14.162,5.653,14.162,13.636c0,9.191-8.885,14.389-20.039,14.389
			c-9.865,0-18.002-3.616-22.445-9.643L541.623,175.429z"/>
		<path fill="#101820" d="M370.418,170.475v12.952h12.043c5.891,0,8.75-2.486,8.75-6.409c0-3.99-2.859-6.543-8.75-6.543H370.418z
			 M370.418,163.308h11.307c5.648,0,8.055-2.491,8.055-6.022c0-3.546-2.406-6.116-8.055-6.116h-11.307V163.308z M383.51,191.041
			h-22.277V143.56h21.092c11.988,0,17.092,5.139,17.092,12.89c0,5.359-3.607,9.109-8.752,9.945
			c5.725,1.055,10.182,4.805,10.182,11.596C400.846,186.216,394.596,191.041,383.51,191.041"/>
		<path fill="#101820" d="M424.504,172.05h14.459l-7.15-17.79h-0.303L424.504,172.05z M437.24,143.56l19.355,47.481h-10.027
			l-4.746-11.753h-20.189l-4.613,11.753h-9.471l19.203-47.481H437.24z"/>
		<rect x="516.18" y="143.559" fill="#101820" width="9.424" height="47.482"/>
		<polygon fill="#101820" points="599.07,143.56 599.07,182.802 624.156,182.802 624.156,191.041 589.656,191.041 589.656,143.56 		
			"/>
		<polygon fill="#101820" points="783.385,191.041 745.264,191.041 745.264,143.56 782.836,143.56 782.836,151.409 754.549,151.409 
			754.549,162.942 777.953,162.942 777.953,170.697 754.549,170.697 754.549,183.191 783.385,183.191 		"/>
		<path fill="#101820" d="M815.047,166.092c6.865,0,10.016-2.268,10.016-7.391c0-4.723-3.15-7.532-10.016-7.532h-10.918v14.923
			H815.047z M825.449,191.041c-0.977-1.291-1.607-4.522-1.957-9.803c-0.377-5.359-2.789-7.752-8.219-7.752h-11.145v17.555h-9.266
			V143.56h21.469c12.139,0,18.09,5.66,18.09,14.467c0,7.171-4.68,11.313-10.479,12.055c5.43,1.056,8.195,4.221,8.729,9.8
			c0.611,7.015,0.844,9.427,2.42,11.16H825.449z"/>
		<path fill="#101820" d="M723.135,160.212c-1.359-5.426-5.727-9.267-12.957-9.267c-8.666,0-14.689,6.402-14.689,16.348
			c0,10.168,5.955,16.569,15.066,16.569c7.383,0,11.824-4.143,13.107-10.245h-14.578v-7.556h23.387v24.956h-6.625l-1.283-7.308
			c-2.334,5.197-8.434,8.214-15.518,8.214c-13.256,0-23.35-9.944-23.35-24.631c0-14.613,11.148-24.633,24.482-24.633
			c10.77,0,18.23,4.821,21.168,12.957L723.135,160.212z"/>
		<path fill="#101820" d="M648.898,172.05h14.475l-7.154-17.79h-0.295L648.898,172.05z M661.639,143.56l19.379,47.481H671
			l-4.748-11.753h-20.188l-4.611,11.753h-9.475l19.195-47.481H661.639z"/>
	</g>
	<g>
		<linearGradient id="SVGID_1_" gradientUnits="userSpaceOnUse" x1="182.6582" y1="97.3799" x2="239.527" y2="272.404">
			<stop  offset="0" style="stop-color:#2483C5"/>
			<stop  offset="0.9" style="stop-color:#26D07C"/>
		</linearGradient>
		<polygon fill="url(#SVGID_1_)" points="188.529,95.473 124.257,117.598 124.257,157.033 132.87,166.279 96.461,178.832 
			96.461,218.294 132.904,257.372 197.145,235.215 233.633,274.318 297.891,252.182 297.891,212.72 289.244,203.486 325.73,190.948 
			325.73,151.515 289.244,112.414 224.971,134.554 		"/>
		<linearGradient id="SVGID_2_" gradientUnits="userSpaceOnUse" x1="160.1885" y1="92.4551" x2="262.005" y2="237.8642">
			<stop  offset="0" style="stop-color:#2483C5"/>
			<stop  offset="1" style="stop-color:#26D07C"/>
		</linearGradient>
		<polygon opacity="0.5" fill="url(#SVGID_2_)" points="188.555,95.473 124.275,117.602 161.238,156.501 96.461,178.829 
			132.945,217.691 197.137,195.751 233.625,234.859 297.908,212.725 261.693,174.108 325.73,151.488 289.289,112.407 
			224.965,134.549 		"/>
	</g>
</g>
</svg>
