<?xml version="1.0" encoding="UTF-8" standalone="no"?><!DOCTYPE svg PUBLIC "-//W3C//DTD SVG 1.1//EN" "http://www.w3.org/Graphics/SVG/1.1/DTD/svg11.dtd"><svg width="100%" height="100%" viewBox="0 0 230 62" version="1.1" xmlns="http://www.w3.org/2000/svg" xmlns:xlink="http://www.w3.org/1999/xlink" xml:space="preserve" xmlns:serif="http://www.serif.com/" style="fill-rule:evenodd;clip-rule:evenodd;stroke-linejoin:round;stroke-miterlimit:2;"><g><path d="M61.97,30.978c0,17.113 -13.873,30.987 -30.986,30.987c-17.112,0 -30.984,-13.874 -30.984,-30.987c0,-17.111 13.872,-30.985 30.984,-30.985c17.113,0 30.986,13.874 30.986,30.985Z" style="fill:#e60064;fill-rule:nonzero;"/><path d="M39.488,19.618c-1.496,0 -2.885,0.565 -4.042,1.622c-0.916,-2.472 -2.944,-3.766 -5.589,-3.766c-1.716,0 -3.138,0.612 -4.231,1.722c-0.879,0.895 -1.477,2.195 -1.75,3.572c-1.118,-0.602 -2.208,-0.693 -3.032,-0.693c-3.223,0 -5.734,2.647 -5.734,6.304c0,2.895 1.202,5.925 6.228,6.792l3.761,7.798c0.173,0.358 0.497,0.569 0.943,0.569c0.147,0 0.295,-0.032 0.437,-0.101c0.5,-0.242 0.673,-0.841 0.431,-1.342l-3.978,-8.247c-0.138,-0.291 -0.407,-0.496 -0.723,-0.552c-3.369,-0.623 -5.007,-2.232 -5.007,-4.917c0,-2.725 1.832,-4.401 3.642,-4.401c1.363,0 2.299,0.384 3.131,1.283c0.282,0.306 0.677,0.449 1.148,0.253c0.386,-0.161 0.602,-0.534 0.596,-0.951c-0.026,-1.621 0.463,-3.063 1.341,-3.956c0.716,-0.727 1.615,-1.176 2.797,-1.176c0.838,0 3.449,0.079 4.139,4.08c0.07,0.407 0.263,0.774 0.73,0.858c0.561,0.102 0.877,-0.133 1.103,-0.481c0.55,-0.843 1.757,-2.258 3.659,-2.258c2.064,0 3.561,1.546 3.561,3.676c0,2.886 -1.472,4.334 -3.679,5.623c-0.297,0.172 -0.485,0.484 -0.498,0.827l-0.346,8.598c-0.02,0.556 0.322,1.036 0.966,1.045c0.622,0.008 1.022,-0.409 1.045,-0.965l0.323,-8.055c2.05,-1.282 4.303,-3.253 4.303,-7.06c0,-3.243 -2.325,-5.701 -5.675,-5.701Z" style="fill:#fff;fill-rule:nonzero;"/><path d="M34.466,27.778c0.209,-0.096 0.362,-0.096 0.53,-0.096c0.215,0 0.412,0.051 0.587,0.154c0.307,0.178 0.523,0.5 0.593,0.88c0.226,1.228 -0.491,2.815 -2.331,3.412c-0.038,-0.225 -0.09,-0.488 -0.122,-0.664c-0.304,-1.702 -0.036,-3.329 0.743,-3.686Zm-9.369,3.107c-0.081,-0.536 0.025,-1.004 0.295,-1.316c0.238,-0.278 0.629,-0.424 1.017,-0.424c1.036,0 1.461,1.462 1.832,3.286c0.04,0.2 0.082,0.505 0.13,0.769c-1.782,0.059 -3.062,-0.886 -3.274,-2.315Zm4.94,1.205c-0.294,-1.551 -0.818,-4.774 -3.582,-4.774c-0.99,0 -1.86,0.376 -2.448,1.058c-0.623,0.723 -0.909,1.71 -0.751,2.78c0.351,2.362 2.384,3.894 5.256,3.803c0.06,-0.002 0.122,-0.006 0.185,-0.009c0.533,3.002 1.219,6.997 1.228,7.051c0.076,0.444 0.39,0.76 0.9,0.76c0.604,0 1.001,-0.553 0.902,-1.069c-0.082,-0.43 -0.68,-3.967 -1.213,-6.968c0.627,-0.109 1.26,-0.241 1.843,-0.376c0.52,3.039 1.222,7.063 1.231,7.118c0.086,0.498 0.476,0.826 1.059,0.743c0.499,-0.071 0.83,-0.561 0.744,-1.059c-0.011,-0.053 -0.736,-4.214 -1.259,-7.262l0.087,-0.027c2.619,-0.77 4.238,-3.059 3.742,-5.536c-0.182,-0.903 -0.69,-1.621 -1.457,-2.068c-0.778,-0.452 -1.72,-0.543 -2.638,-0.205c-1.817,0.67 -2.446,2.685 -1.947,5.713c0.036,0.22 0.08,0.513 0.13,0.808c-0.611,0.145 -1.249,0.277 -1.858,0.38c-0.058,-0.316 -0.11,-0.628 -0.154,-0.861Z" style="fill:#fff;fill-rule:nonzero;"/><path d="M38.85,44.125l-10.5,1.644c-0.549,0.086 -0.945,0.522 -0.839,1.15c0.094,0.547 0.48,0.946 1.15,0.837c2.543,-0.414 10.5,-1.644 10.5,-1.644c0.549,-0.086 0.925,-0.599 0.838,-1.148c-0.085,-0.548 -0.601,-0.924 -1.149,-0.839Z" style="fill:#fff;fill-rule:nonzero;"/><path d="M38.441,48.61l-8.151,1.277c-0.549,0.085 -0.901,0.54 -0.838,1.092c0.077,0.672 0.555,0.995 1.15,0.894c2.142,-0.361 8.151,-1.276 8.151,-1.276c0.549,-0.084 0.925,-0.6 0.838,-1.148c-0.085,-0.549 -0.601,-0.925 -1.15,-0.839Z" style="fill:#fff;fill-rule:nonzero;"/><path d="M22.055,17.37c0.176,0.356 0.533,0.564 0.905,0.564c0.148,0 0.3,-0.034 0.441,-0.104c0.499,-0.244 0.705,-0.847 0.46,-1.346l-1.925,-3.924c-0.245,-0.498 -0.847,-0.706 -1.347,-0.46c-0.498,0.244 -0.703,0.848 -0.459,1.346l1.925,3.924Z" style="fill:#fff;fill-rule:nonzero;"/><path d="M34.443,16.592c0.057,0.01 0.113,0.014 0.168,0.014c0.482,0 0.907,-0.348 0.991,-0.839l0.719,-4.296c0.092,-0.548 -0.278,-1.066 -0.826,-1.158c-0.548,-0.09 -1.067,0.278 -1.158,0.826l-0.72,4.294c-0.092,0.548 0.278,1.067 0.826,1.159Z" style="fill:#fff;fill-rule:nonzero;"/><path d="M48.444,14.632c-0.443,-0.335 -1.074,-0.249 -1.409,0.195l-2.526,3.326c-0.334,0.443 -0.248,1.073 0.194,1.41c0.183,0.138 0.395,0.203 0.608,0.203c0.304,0 0.604,-0.136 0.801,-0.398l2.525,-3.326c0.336,-0.443 0.248,-1.073 -0.193,-1.41Z" style="fill:#fff;fill-rule:nonzero;"/><path d="M13.945,21.868l-3.322,-2.549c-0.441,-0.341 -1.073,-0.256 -1.41,0.184c-0.339,0.441 -0.279,1.072 0.162,1.41l3.321,2.552c0.173,0.132 0.398,0.201 0.6,0.206c0.314,0.012 0.628,-0.123 0.834,-0.392c0.338,-0.44 0.255,-1.072 -0.185,-1.411Z" style="fill:#fff;fill-rule:nonzero;"/><path d="M82.699,19.529c0.509,0.744 1.615,1.569 2.792,1.569c2.901,0 4.803,-3.722 4.658,-6.378c-0.155,-2.842 -3.994,-5.255 -7.032,-5.255c-3.039,0 -9.907,4.165 -9.61,9.612c0.188,3.445 1.914,5.102 4.327,7.307c2.414,2.204 4.386,3.86 4.386,6.057c0,2.341 -1.429,3.453 -3.061,3.453c-2.017,0 -3.159,-1.301 -3.256,-3.054c-0.056,-1.037 0.517,-2.276 1.489,-2.702c-0.811,-1.222 -1.91,-1.949 -3.219,-1.949c-2.153,0 -3.619,1.967 -3.476,4.597c0.175,3.215 3.187,6.19 8.021,6.19c5.056,0 9.365,-2.762 9.113,-7.385c-0.165,-3.029 -3.25,-5.905 -5.003,-7.659c-1.753,-1.752 -3.497,-2.916 -3.61,-4.987c-0.135,-2.467 3.637,-5.685 5.608,-5.685c0.588,0 0.763,0.505 0.79,1.009c0.093,1.701 -1.45,4.303 -2.917,5.26Z" style="fill:#e60064;fill-rule:nonzero;"/><path d="M98.234,22.6c0.455,0.018 0.792,0.567 0.792,1.249c0,2.145 -1.108,5.474 -4.31,5.31c0.164,-2.53 2.087,-6.608 3.518,-6.559Zm19.637,-3.874c-1.694,0 -3.24,1.504 -3.81,3.18c1.38,0.146 1.867,1.064 1.848,2.153c-0.016,0.902 -0.235,2.451 -0.604,3.721c-0.553,1.897 -1.408,4.216 -2.557,6.417c-0.732,-2.532 -2.426,-11.114 -2.636,-13.272c-0.038,-0.401 -0.256,-0.57 -0.798,-0.57l-4.125,0c-0.594,0 -0.689,0.335 -0.598,0.783c0.115,0.558 1.303,5.872 2.288,10.266c-1.634,1.814 -5.249,3.95 -8.574,3.95c-2.403,0 -3.535,-2.178 -3.628,-3.944c0.321,0.057 0.652,0.092 0.943,0.101c5.415,0.19 7.701,-3.222 7.701,-7.187c0,-2.788 -3.651,-4.526 -6.359,-4.573c-4.696,-0.083 -7.763,5.321 -7.763,10.155c0,5.56 2.7,8.445 7.827,8.445c3.811,0 8.021,-1.922 10.457,-4.258c0.382,1.693 0.663,2.939 0.725,3.202c0.144,0.604 0.405,0.743 0.984,0.743l4.284,0c0.608,0 0.916,-0.209 1.174,-0.69c1.488,-2.779 6.061,-11.834 6.12,-15.168c0.034,-1.988 -0.772,-3.454 -2.899,-3.454Z" style="fill:#e60064;fill-rule:nonzero;"/><path d="M129.468,22.6c0.456,0.018 0.793,0.567 0.793,1.249c0,2.657 -1.727,5.443 -4.309,5.31c0.164,-2.53 2.086,-6.608 3.516,-6.559Zm21.15,13.153c-0.016,-1.704 0.182,-3.757 0.401,-5.78c0.266,-2.458 0.592,-4.87 0.592,-6.557c0,-2.148 -1.391,-3.613 -3.822,-3.613c-2.456,0 -4.893,3.628 -5.996,6.814c0.203,-1.703 0.53,-4.565 0.629,-5.429c0.065,-0.561 -0.17,-0.833 -0.677,-0.833l-3.844,0c-0.554,0 -0.727,0.175 -0.785,0.813c-0.101,1.097 -0.555,6.977 -0.886,11.339c-1.53,1.551 -4.171,2.934 -6.69,2.847c-2.587,-0.09 -3.536,-2.178 -3.627,-3.944c0.321,0.057 0.651,0.092 0.942,0.101c4.796,0.168 7.702,-2.721 7.702,-7.187c0,-2.788 -3.652,-4.526 -6.359,-4.573c-4.696,-0.083 -7.763,5.321 -7.763,10.155c0,5.56 2.698,8.445 7.826,8.445c2.781,0 5.52,-1.084 7.736,-2.769c-0.06,0.786 -0.102,1.363 -0.123,1.626c-0.037,0.504 0.135,0.829 0.689,0.829l3.897,0c0.552,0 0.758,-0.154 0.802,-0.702c0.11,-1.367 0.375,-2.997 0.623,-4.574c0.236,-1.492 0.94,-3.576 1.241,-4.485c0.646,-1.952 1.984,-4.327 2.692,-4.327c0.466,0 0.522,0.37 0.522,0.757c0,0.456 -0.285,2.785 -0.541,5.265c-0.212,2.069 -0.404,4.243 -0.393,5.524c0.021,2.432 0.954,4.642 3.938,4.642c1.628,0 3.575,-0.92 3.932,-2.248c-1.517,-0.127 -2.648,-0.754 -2.658,-2.136Z" style="fill:#e60064;fill-rule:nonzero;"/><path d="M222.912,35.466c-0.93,0 -1.721,-0.375 -2.444,-1.071c1.114,-1.795 1.959,-3.872 2.481,-5.506c0.915,1.515 1.878,3.118 1.878,4.342c0,1.173 -0.662,2.235 -1.915,2.235Zm-25.73,-6.872c-0.179,3.129 -1.095,6.858 -2.685,6.858c-1.499,0 -1.778,-3.198 -1.637,-5.666c0.2,-3.536 1.283,-7.043 2.938,-7.043c1.356,0 1.519,3.493 1.384,5.851Zm-17.156,0c-0.179,3.129 -1.095,6.858 -2.687,6.858c-1.498,0 -1.776,-3.198 -1.636,-5.666c0.201,-3.536 1.283,-7.043 2.939,-7.043c1.355,0 1.519,3.493 1.384,5.851Zm48.196,-1.367c-1.233,-2.1 -2.352,-3.72 -2.352,-5.028c0,-0.738 0.202,-1.271 0.808,-1.621c-0.59,-0.552 -1.317,-0.795 -2.256,-0.795c-2.19,0 -3.71,1.549 -3.71,3.815c0,1.126 0.317,1.999 0.816,2.921c-1.083,3.881 -3.113,7.871 -4.695,7.871c-1.379,0 -2.621,-4.044 -3.351,-6.629c2.965,-1.049 5.342,-3.1 5.342,-5.339c0,-1.512 -0.775,-2.616 -2.558,-2.616c-0.957,0 -2.029,0.385 -2.464,0.772c0.306,0.387 0.423,0.851 0.423,1.312c0,1.556 -1.681,3.683 -4,4.367c0.444,-5.799 0.934,-12.105 0.981,-12.639c0.049,-0.562 -0.45,-0.796 -0.93,-0.636c-0.745,0.248 -2.388,0.938 -3.235,1.275c-0.513,0.203 -0.888,0.371 -0.947,1.009c-0.053,0.579 -0.257,3.191 -0.506,6.427c-1.376,0.69 -3.678,0.49 -4.756,0.022c-0.239,-0.103 -0.497,-0.263 -0.673,-0.385c-1.046,-0.713 -2.208,-1.524 -4.157,-1.524c-1.849,0 -3.361,0.62 -4.758,1.561c-0.337,0.226 -0.681,0.412 -1.032,0.551c-0.973,0.39 -2.196,0.471 -3.016,0.471c-1.565,0 -3.023,-0.317 -4.088,-1.022c-1.272,-0.843 -2.58,-1.561 -4.264,-1.561c-5.712,0 -8.535,5.67 -8.61,9.98c-0.02,1.133 0.073,2.151 0.267,3.061c-1.396,1.26 -3.491,2.188 -5.783,2.188c-3.343,0 -4.509,-2.964 -4.569,-6.411c-0.094,-5.338 3.469,-14.621 6.37,-14.621c0.773,0 1.095,0.848 1.095,1.896c0,2.119 -1.744,4.809 -3.056,5.562c0.605,0.885 1.389,1.493 2.492,1.493c3.518,0 4.983,-3.72 4.934,-6.518c-0.026,-1.524 -0.509,-2.483 -1.453,-3.564c-0.998,-1.144 -2.803,-2.182 -4.581,-2.182c-7.51,0 -11.68,10.551 -11.549,18.084c0.103,5.837 2.848,10.202 8.838,10.202c3.022,0 6.276,-1.85 8.121,-3.754c1.164,2.094 3.166,3.146 5.705,3.146c5.047,0 8.347,-4.778 8.432,-9.687c0.025,-1.37 -0.117,-2.882 -0.551,-4.028c0.553,0.141 1.364,0.219 1.949,0.219c0.699,0 1.218,-0.066 1.763,-0.178c-0.793,1.612 -1.24,3.559 -1.267,5.092c-0.1,5.711 2.635,8.582 6.828,8.582c5.047,0 8.35,-4.778 8.436,-9.687c0.023,-1.391 -0.129,-2.904 -0.579,-4.079c0.948,0.202 2.257,0.183 3.298,-0.121c-0.43,5.614 -0.9,11.843 -0.964,12.728c-0.036,0.504 0.135,0.829 0.687,0.829l3.416,0c0.621,0 0.842,-0.281 0.872,-0.83c0.034,-0.615 0.189,-3.688 0.374,-6.464c0.958,4.163 2.706,7.624 5.511,7.624c1.493,0 2.832,-0.927 3.974,-2.272c1.1,1.373 2.517,2.272 4.432,2.272c3.52,0 6.352,-2.541 6.352,-6.096c0,-2.007 -0.84,-3.403 -1.806,-5.045Z" style="fill:#e60064;fill-rule:nonzero;"/><path d="M76.995,49.334c-0.116,-0.111 -0.284,-0.165 -0.506,-0.165c-0.343,0 -0.645,0.145 -0.904,0.438c-0.261,0.291 -0.466,0.648 -0.618,1.068c-0.151,0.419 -0.24,0.814 -0.267,1.185c0.329,0 0.689,-0.089 1.078,-0.268c0.389,-0.178 0.719,-0.418 0.987,-0.719c0.269,-0.302 0.404,-0.633 0.404,-0.994c0,-0.254 -0.058,-0.435 -0.174,-0.545Zm1.454,-0.864c0.347,0.299 0.52,0.704 0.52,1.215c0,0.923 -0.417,1.64 -1.253,2.151c-0.837,0.511 -1.841,0.868 -3.016,1.072c-0.026,0.941 0.367,1.412 1.18,1.412c0.366,0 0.75,-0.099 1.152,-0.297c0.403,-0.196 0.748,-0.439 1.037,-0.728l0.487,0.898c-0.147,0.207 -0.366,0.424 -0.66,0.647c-0.294,0.223 -0.647,0.414 -1.061,0.568c-0.414,0.155 -0.854,0.232 -1.321,0.232c-0.618,0 -1.134,-0.132 -1.548,-0.4c-0.413,-0.266 -0.718,-0.618 -0.914,-1.059c-0.195,-0.44 -0.294,-0.92 -0.294,-1.439c0,-0.881 0.181,-1.68 0.538,-2.399c0.357,-0.72 0.852,-1.286 1.481,-1.701c0.629,-0.414 1.336,-0.62 2.118,-0.62c0.69,0 1.208,0.15 1.554,0.448Z" style="fill:#e60064;fill-rule:nonzero;"/><path d="M81.542,45.103c0.105,-0.18 0.247,-0.325 0.427,-0.434c0.18,-0.109 0.379,-0.162 0.597,-0.162c0.196,0 0.371,0.041 0.523,0.123c0.154,0.082 0.273,0.192 0.355,0.33c0.081,0.138 0.122,0.289 0.122,0.453c0,0.219 -0.051,0.419 -0.152,0.601c-0.102,0.182 -0.248,0.327 -0.437,0.434c-0.189,0.106 -0.404,0.159 -0.644,0.159c-0.169,0 -0.326,-0.041 -0.471,-0.123c-0.144,-0.082 -0.259,-0.193 -0.346,-0.334c-0.088,-0.139 -0.131,-0.295 -0.131,-0.463c0,-0.21 0.053,-0.404 0.157,-0.584Zm1.418,2.925l-1.048,7.606l-1.841,0l1.041,-7.606l1.848,0Z" style="fill:#e60064;fill-rule:nonzero;"/><path d="M90.715,48.48c0.278,0.306 0.417,0.804 0.417,1.493c0,0.305 -0.088,1.068 -0.266,2.29c-0.063,0.462 -0.178,1.256 -0.347,2.381l-0.147,0.99l-1.841,0c0.035,-0.276 0.073,-0.537 0.11,-0.786c0.038,-0.249 0.072,-0.479 0.104,-0.695c0.11,-0.758 0.199,-1.382 0.266,-1.874c0.147,-1.053 0.22,-1.745 0.22,-2.079c0,-0.258 -0.051,-0.436 -0.153,-0.532c-0.102,-0.097 -0.258,-0.145 -0.468,-0.145c-0.199,0 -0.423,0.065 -0.671,0.195c-0.245,0.129 -0.489,0.303 -0.729,0.522c-0.24,0.219 -0.452,0.462 -0.634,0.732l-0.647,4.662l-1.841,0l1.034,-7.605l1.754,0l-0.107,1.524c0.352,-0.461 0.763,-0.831 1.234,-1.112c0.472,-0.279 0.961,-0.419 1.468,-0.419c0.552,0 0.967,0.152 1.244,0.458Z" style="fill:#e60064;fill-rule:nonzero;"/><path d="M92.8,49.269l0.227,-1.241l0.814,0l0.107,-0.667c0.08,-0.578 0.252,-1.086 0.517,-1.524c0.264,-0.438 0.611,-0.779 1.04,-1.021c0.43,-0.242 0.925,-0.363 1.485,-0.363c0.463,0 0.827,0.057 1.095,0.173l-0.375,1.328c-0.08,-0.067 -0.189,-0.128 -0.327,-0.184c-0.138,-0.055 -0.297,-0.083 -0.479,-0.083c-0.294,0 -0.535,0.11 -0.724,0.33c-0.189,0.22 -0.318,0.546 -0.384,0.978l-0.161,1.033l1.335,0l-0.134,1.241l-1.355,0l-0.866,6.365l-1.815,0l0.868,-6.365l-0.868,0Z" style="fill:#e60064;fill-rule:nonzero;"/><path d="M101.063,53.735c0.34,-0.398 0.626,-0.847 0.857,-1.348l0.454,-3.051c-0.218,-0.093 -0.476,-0.14 -0.774,-0.14c-0.515,0 -0.952,0.176 -1.308,0.527c-0.355,0.35 -0.622,0.795 -0.797,1.332c-0.175,0.537 -0.263,1.081 -0.263,1.627c0,0.556 0.065,0.972 0.196,1.243c0.132,0.272 0.324,0.408 0.577,0.408c0.366,0 0.718,-0.198 1.058,-0.598Zm3.298,-5.714l-1.06,7.613l-1.641,0l0.093,-1.542c-0.253,0.432 -0.574,0.798 -0.963,1.098c-0.39,0.3 -0.829,0.45 -1.318,0.45c-0.739,0 -1.282,-0.253 -1.631,-0.759c-0.35,-0.507 -0.524,-1.186 -0.524,-2.035c0,-0.785 0.166,-1.546 0.5,-2.286c0.333,-0.739 0.838,-1.346 1.512,-1.824c0.673,-0.476 1.492,-0.715 2.458,-0.715c0.24,0 0.505,0.027 0.794,0.077c0.289,0.052 0.551,0.113 0.786,0.184l0.994,-0.261Z" style="fill:#e60064;fill-rule:nonzero;"/><path d="M110.259,48.092c0.308,0.047 0.552,0.113 0.735,0.197l-0.455,1.712c-0.156,-0.136 -0.352,-0.265 -0.593,-0.385c-0.241,-0.12 -0.471,-0.18 -0.694,-0.18c-0.329,0 -0.646,0.122 -0.951,0.369c-0.304,0.246 -0.552,0.595 -0.743,1.05c-0.192,0.454 -0.287,0.982 -0.287,1.579c0,0.659 0.093,1.132 0.28,1.42c0.186,0.287 0.487,0.432 0.9,0.432c0.276,0 0.558,-0.074 0.851,-0.223c0.291,-0.148 0.561,-0.343 0.81,-0.585l0.513,0.882c-0.137,0.2 -0.325,0.397 -0.562,0.59c-0.239,0.193 -0.532,0.357 -0.882,0.49c-0.349,0.133 -0.732,0.2 -1.15,0.2c-0.592,0 -1.085,-0.129 -1.481,-0.39c-0.395,-0.259 -0.687,-0.611 -0.873,-1.053c-0.187,-0.44 -0.28,-0.945 -0.28,-1.508c0,-0.805 0.164,-1.566 0.493,-2.281c0.329,-0.715 0.797,-1.293 1.404,-1.728c0.607,-0.439 1.309,-0.659 2.103,-0.659c0.269,0 0.555,0.024 0.862,0.071Z" style="fill:#e60064;fill-rule:nonzero;"/><path d="M118.212,48.48c0.28,0.305 0.42,0.801 0.42,1.492c0,0.161 -0.022,0.419 -0.066,0.773c-0.046,0.353 -0.111,0.856 -0.201,1.511l-0.32,2.152l-0.181,1.226l-1.841,0c0.054,-0.412 0.125,-0.902 0.214,-1.47c0.102,-0.71 0.192,-1.34 0.267,-1.891c0.075,-0.551 0.132,-0.986 0.169,-1.305c0.039,-0.322 0.058,-0.577 0.058,-0.769c0,-0.259 -0.052,-0.435 -0.154,-0.531c-0.101,-0.097 -0.258,-0.145 -0.467,-0.145c-0.199,0 -0.423,0.064 -0.671,0.19c-0.246,0.127 -0.488,0.3 -0.726,0.515c-0.238,0.217 -0.446,0.457 -0.624,0.719l-0.653,4.687l-1.809,0l1.428,-10.914l1.814,0l-0.427,3.607l-0.227,1.373c0.352,-0.502 0.769,-0.908 1.252,-1.216c0.482,-0.308 0.981,-0.462 1.497,-0.462c0.552,0 0.968,0.152 1.248,0.458Z" style="fill:#e60064;fill-rule:nonzero;"/><path d="M121.774,53.749c0.151,0.163 0.227,0.37 0.227,0.624c0,0.388 -0.112,0.695 -0.337,0.924c-0.224,0.229 -0.524,0.343 -0.897,0.343c-0.271,0 -0.491,-0.082 -0.661,-0.247c-0.168,-0.164 -0.253,-0.378 -0.253,-0.639c0,-0.219 0.05,-0.423 0.149,-0.615c0.101,-0.191 0.244,-0.344 0.427,-0.46c0.185,-0.116 0.398,-0.173 0.638,-0.173c0.32,0 0.556,0.081 0.707,0.243Z" style="fill:#e60064;fill-rule:nonzero;"/><path d="M131.775,49.279c-0.218,-0.056 -0.472,-0.083 -0.761,-0.083c-0.515,0 -0.955,0.177 -1.317,0.529c-0.363,0.354 -0.634,0.799 -0.815,1.335c-0.179,0.538 -0.269,1.079 -0.269,1.622c0,1.091 0.258,1.638 0.773,1.638c0.366,0 0.721,-0.2 1.068,-0.601c0.347,-0.4 0.64,-0.851 0.881,-1.351l0.44,-3.089Zm2.02,-1.257l-1.113,7.993c-0.107,0.727 -0.358,1.31 -0.754,1.75c-0.395,0.44 -0.865,0.75 -1.408,0.932c-0.542,0.182 -1.111,0.273 -1.708,0.273c-0.302,0 -0.642,-0.03 -1.02,-0.086c-0.378,-0.059 -0.639,-0.119 -0.781,-0.182l0.34,-1.4c0.175,0.102 0.438,0.208 0.792,0.313c0.353,0.107 0.694,0.16 1.024,0.16c0.494,0 0.864,-0.133 1.111,-0.398c0.245,-0.265 0.421,-0.658 0.523,-1.176l0.367,-2.117c-0.263,0.437 -0.592,0.806 -0.987,1.106c-0.396,0.3 -0.84,0.45 -1.328,0.45c-0.739,0 -1.282,-0.253 -1.632,-0.76c-0.349,-0.506 -0.523,-1.185 -0.523,-2.034c0,-0.782 0.169,-1.542 0.507,-2.283c0.338,-0.739 0.846,-1.349 1.527,-1.827c0.682,-0.476 1.503,-0.714 2.469,-0.714c0.24,0 0.505,0.026 0.794,0.076c0.289,0.052 0.551,0.114 0.788,0.184l1.012,-0.26Z" style="fill:#e60064;fill-rule:nonzero;"/><path d="M139.06,49.334c-0.116,-0.111 -0.285,-0.165 -0.507,-0.165c-0.343,0 -0.644,0.145 -0.904,0.438c-0.261,0.291 -0.466,0.648 -0.617,1.068c-0.152,0.419 -0.24,0.814 -0.268,1.185c0.329,0 0.69,-0.089 1.079,-0.268c0.388,-0.178 0.718,-0.418 0.987,-0.719c0.269,-0.302 0.403,-0.633 0.403,-0.994c0,-0.254 -0.057,-0.435 -0.173,-0.545Zm1.454,-0.864c0.347,0.299 0.521,0.704 0.521,1.215c0,0.923 -0.418,1.64 -1.254,2.151c-0.837,0.511 -1.841,0.868 -3.017,1.072c-0.025,0.941 0.368,1.412 1.181,1.412c0.366,0 0.75,-0.099 1.151,-0.297c0.404,-0.196 0.748,-0.439 1.037,-0.728l0.488,0.898c-0.147,0.207 -0.367,0.424 -0.661,0.647c-0.293,0.223 -0.646,0.414 -1.061,0.568c-0.413,0.155 -0.854,0.232 -1.32,0.232c-0.619,0 -1.134,-0.132 -1.547,-0.4c-0.414,-0.266 -0.719,-0.618 -0.915,-1.059c-0.196,-0.44 -0.293,-0.92 -0.293,-1.439c0,-0.881 0.179,-1.68 0.537,-2.399c0.357,-0.72 0.851,-1.286 1.481,-1.701c0.628,-0.414 1.335,-0.62 2.118,-0.62c0.69,0 1.208,0.15 1.554,0.448Z" style="fill:#e60064;fill-rule:nonzero;"/><path d="M142.543,53.989c0.196,0.094 0.412,0.171 0.65,0.235c0.237,0.064 0.468,0.095 0.69,0.095c0.744,0 1.115,-0.243 1.115,-0.73c0,-0.143 -0.038,-0.274 -0.114,-0.394c-0.076,-0.121 -0.172,-0.232 -0.287,-0.336c-0.116,-0.104 -0.279,-0.239 -0.494,-0.409l-0.34,-0.27c-0.258,-0.211 -0.469,-0.41 -0.633,-0.595c-0.165,-0.185 -0.299,-0.4 -0.404,-0.644c-0.105,-0.243 -0.157,-0.522 -0.157,-0.838c0,-0.43 0.121,-0.803 0.364,-1.119c0.242,-0.313 0.576,-0.553 1.001,-0.716c0.425,-0.164 0.906,-0.246 1.443,-0.246c0.357,0 0.705,0.029 1.044,0.086c0.341,0.059 0.576,0.114 0.705,0.167l-0.253,1.624c-0.063,-0.072 -0.167,-0.153 -0.315,-0.24c-0.146,-0.086 -0.324,-0.162 -0.533,-0.227c-0.209,-0.064 -0.431,-0.096 -0.667,-0.096c-0.324,0 -0.583,0.062 -0.774,0.188c-0.191,0.124 -0.287,0.299 -0.287,0.524c0,0.154 0.031,0.29 0.093,0.407c0.063,0.116 0.145,0.224 0.247,0.32c0.103,0.097 0.258,0.229 0.467,0.398l0.261,0.207c0.315,0.241 0.569,0.459 0.762,0.652c0.195,0.194 0.35,0.413 0.469,0.656c0.117,0.243 0.176,0.519 0.176,0.826c0,0.487 -0.128,0.887 -0.387,1.206c-0.258,0.316 -0.604,0.549 -1.041,0.697c-0.435,0.149 -0.925,0.223 -1.467,0.223c-0.427,0 -0.849,-0.044 -1.267,-0.133c-0.419,-0.088 -0.692,-0.187 -0.821,-0.293l0.313,-1.48c0.098,0.076 0.244,0.162 0.441,0.255Z" style="fill:#e60064;fill-rule:nonzero;"/><path d="M155.318,48.028l-1.02,7.607l-1.668,0l0.093,-1.494c-0.316,0.441 -0.694,0.8 -1.134,1.08c-0.44,0.279 -0.91,0.42 -1.408,0.42c-0.574,0 -1.018,-0.144 -1.335,-0.434c-0.315,-0.288 -0.473,-0.756 -0.473,-1.403c0,-0.206 0.016,-0.45 0.046,-0.729c0.033,-0.279 0.079,-0.663 0.14,-1.148c0.072,-0.504 0.17,-1.199 0.294,-2.087c0.126,-0.888 0.212,-1.493 0.261,-1.812l1.828,0c-0.01,0.083 -0.018,0.142 -0.026,0.177c-0.054,0.4 -0.144,1.063 -0.271,1.987c-0.127,0.924 -0.203,1.504 -0.23,1.739c-0.102,0.723 -0.153,1.238 -0.153,1.543c0,0.271 0.057,0.461 0.173,0.576c0.116,0.113 0.284,0.169 0.507,0.169c0.298,0 0.619,-0.142 0.964,-0.427c0.345,-0.286 0.65,-0.633 0.918,-1.043l0.653,-4.721l1.841,0Z" style="fill:#e60064;fill-rule:nonzero;"/><path d="M163.014,48.48c0.278,0.306 0.416,0.804 0.416,1.493c0,0.305 -0.089,1.068 -0.266,2.29c-0.063,0.462 -0.177,1.256 -0.347,2.381l-0.148,0.99l-1.84,0c0.035,-0.276 0.073,-0.537 0.11,-0.786c0.038,-0.249 0.072,-0.479 0.104,-0.695c0.11,-0.758 0.199,-1.382 0.266,-1.874c0.148,-1.053 0.22,-1.745 0.22,-2.079c0,-0.258 -0.051,-0.436 -0.152,-0.532c-0.103,-0.097 -0.259,-0.145 -0.468,-0.145c-0.199,0 -0.424,0.065 -0.671,0.195c-0.246,0.129 -0.489,0.303 -0.73,0.522c-0.24,0.219 -0.452,0.462 -0.634,0.732l-0.647,4.662l-1.841,0l1.033,-7.605l1.755,0l-0.106,1.524c0.351,-0.461 0.763,-0.831 1.233,-1.112c0.472,-0.279 0.961,-0.419 1.468,-0.419c0.553,0 0.967,0.152 1.245,0.458Z" style="fill:#e60064;fill-rule:nonzero;"/><path d="M168.188,54.012c0.253,-0.206 0.482,-0.459 0.688,-0.761c0.203,-0.301 0.377,-0.604 0.52,-0.909l0.427,-2.983c-0.233,-0.109 -0.488,-0.163 -0.768,-0.163c-0.515,0 -0.955,0.177 -1.318,0.528c-0.362,0.355 -0.633,0.8 -0.814,1.336c-0.18,0.538 -0.27,1.079 -0.27,1.622c0,1.091 0.258,1.638 0.774,1.638c0.254,0 0.506,-0.102 0.761,-0.308Zm4.05,-9.393l-1.442,11.015l-1.647,0l0.1,-1.619c-0.254,0.449 -0.583,0.832 -0.989,1.15c-0.404,0.316 -0.859,0.475 -1.367,0.475c-0.738,0 -1.282,-0.253 -1.631,-0.759c-0.349,-0.508 -0.523,-1.186 -0.523,-2.035c0,-0.782 0.168,-1.542 0.507,-2.282c0.338,-0.741 0.846,-1.35 1.527,-1.828c0.68,-0.476 1.503,-0.715 2.469,-0.715c0.218,0 0.467,0.023 0.747,0.068l0.447,-3.47l1.802,0Z" style="fill:#e60064;fill-rule:nonzero;"/><path d="M174.685,53.749c0.151,0.163 0.227,0.37 0.227,0.624c0,0.388 -0.112,0.695 -0.337,0.924c-0.224,0.229 -0.524,0.343 -0.897,0.343c-0.271,0 -0.491,-0.082 -0.661,-0.247c-0.168,-0.164 -0.253,-0.378 -0.253,-0.639c0,-0.219 0.05,-0.423 0.15,-0.615c0.1,-0.191 0.243,-0.344 0.426,-0.46c0.185,-0.116 0.398,-0.173 0.638,-0.173c0.32,0 0.556,0.081 0.707,0.243Z" style="fill:#e60064;fill-rule:nonzero;"/><path d="M185.176,50.754c-0.376,0.354 -0.735,0.619 -1.077,0.797l2.294,4.083l-2.121,0l-2.008,-4.216l0.014,-0.007l-0.014,0c0.365,-0.205 0.691,-0.457 0.978,-0.758c0.287,-0.3 0.566,-0.666 0.837,-1.097c0.182,-0.25 0.338,-0.495 0.466,-0.737c0.13,-0.242 0.241,-0.507 0.334,-0.791l1.801,0c-0.021,0.272 -0.079,0.528 -0.173,0.771c-0.093,0.242 -0.221,0.493 -0.386,0.75c-0.254,0.45 -0.569,0.85 -0.945,1.205Zm-2.271,-6.034l-1.428,10.914l-1.814,0l1.427,-10.914l1.815,0Z" style="fill:#e60064;fill-rule:nonzero;"/><path d="M191.167,53.934c0.277,-0.331 0.484,-0.754 0.62,-1.267c0.135,-0.514 0.205,-1.043 0.205,-1.588c0,-0.629 -0.086,-1.096 -0.254,-1.4c-0.169,-0.304 -0.437,-0.457 -0.801,-0.457c-0.405,0 -0.749,0.171 -1.033,0.511c-0.285,0.341 -0.499,0.772 -0.642,1.291c-0.142,0.521 -0.213,1.049 -0.213,1.584c0,1.216 0.363,1.824 1.088,1.824c0.408,0 0.751,-0.165 1.03,-0.498Zm2.045,-5.071c0.441,0.562 0.661,1.319 0.661,2.272c0,0.794 -0.163,1.535 -0.486,2.224c-0.322,0.69 -0.786,1.242 -1.393,1.657c-0.608,0.416 -1.313,0.624 -2.117,0.624c-0.601,0 -1.102,-0.13 -1.501,-0.393c-0.402,-0.263 -0.699,-0.627 -0.894,-1.096c-0.196,-0.468 -0.294,-1.011 -0.294,-1.631c0,-0.793 0.163,-1.533 0.49,-2.219c0.327,-0.688 0.796,-1.24 1.407,-1.656c0.613,-0.416 1.323,-0.623 2.132,-0.623c0.89,0 1.554,0.281 1.995,0.841Z" style="fill:#e60064;fill-rule:nonzero;"/><path d="M199.796,48.092c0.308,0.047 0.552,0.113 0.735,0.197l-0.454,1.712c-0.157,-0.136 -0.353,-0.265 -0.593,-0.385c-0.24,-0.12 -0.472,-0.18 -0.695,-0.18c-0.329,0 -0.644,0.122 -0.95,0.369c-0.303,0.246 -0.553,0.595 -0.744,1.05c-0.191,0.454 -0.287,0.982 -0.287,1.579c0,0.659 0.093,1.132 0.28,1.42c0.187,0.287 0.488,0.432 0.901,0.432c0.275,0 0.559,-0.074 0.851,-0.223c0.291,-0.148 0.561,-0.343 0.81,-0.585l0.514,0.882c-0.138,0.2 -0.326,0.397 -0.563,0.59c-0.238,0.193 -0.532,0.357 -0.88,0.49c-0.349,0.133 -0.735,0.2 -1.152,0.2c-0.593,0 -1.086,-0.129 -1.482,-0.39c-0.395,-0.259 -0.686,-0.611 -0.874,-1.053c-0.186,-0.44 -0.279,-0.945 -0.279,-1.508c0,-0.805 0.164,-1.566 0.493,-2.281c0.328,-0.715 0.798,-1.293 1.405,-1.728c0.608,-0.439 1.308,-0.659 2.104,-0.659c0.268,0 0.554,0.024 0.86,0.071Z" style="fill:#e60064;fill-rule:nonzero;"/><path d="M207.75,48.48c0.279,0.305 0.419,0.801 0.419,1.492c0,0.161 -0.021,0.419 -0.066,0.773c-0.045,0.353 -0.111,0.856 -0.2,1.511l-0.32,2.152l-0.181,1.226l-1.841,0c0.054,-0.412 0.125,-0.902 0.214,-1.47c0.102,-0.71 0.191,-1.34 0.267,-1.891c0.075,-0.551 0.132,-0.986 0.17,-1.305c0.039,-0.322 0.056,-0.577 0.056,-0.769c0,-0.259 -0.052,-0.435 -0.154,-0.531c-0.101,-0.097 -0.257,-0.145 -0.467,-0.145c-0.199,0 -0.422,0.064 -0.669,0.19c-0.246,0.127 -0.488,0.3 -0.726,0.515c-0.239,0.217 -0.448,0.457 -0.625,0.719l-0.654,4.687l-1.808,0l1.427,-10.914l1.814,0l-0.427,3.607l-0.227,1.373c0.352,-0.502 0.77,-0.908 1.253,-1.216c0.483,-0.308 0.981,-0.462 1.497,-0.462c0.551,0 0.967,0.152 1.248,0.458Z" style="fill:#e60064;fill-rule:nonzero;"/><path d="M213.76,49.334c-0.116,-0.111 -0.285,-0.165 -0.507,-0.165c-0.342,0 -0.643,0.145 -0.903,0.438c-0.261,0.291 -0.467,0.648 -0.618,1.068c-0.151,0.419 -0.24,0.814 -0.268,1.185c0.33,0 0.691,-0.089 1.08,-0.268c0.388,-0.178 0.718,-0.418 0.987,-0.719c0.269,-0.302 0.402,-0.633 0.402,-0.994c0,-0.254 -0.056,-0.435 -0.173,-0.545Zm1.454,-0.864c0.347,0.299 0.52,0.704 0.52,1.215c0,0.923 -0.417,1.64 -1.253,2.151c-0.837,0.511 -1.841,0.868 -3.017,1.072c-0.025,0.941 0.369,1.412 1.181,1.412c0.366,0 0.751,-0.099 1.152,-0.297c0.404,-0.196 0.747,-0.439 1.037,-0.728l0.487,0.898c-0.147,0.207 -0.366,0.424 -0.66,0.647c-0.294,0.223 -0.647,0.414 -1.062,0.568c-0.413,0.155 -0.853,0.232 -1.32,0.232c-0.618,0 -1.134,-0.132 -1.548,-0.4c-0.413,-0.266 -0.718,-0.618 -0.914,-1.059c-0.195,-0.44 -0.294,-0.92 -0.294,-1.439c0,-0.881 0.181,-1.68 0.539,-2.399c0.357,-0.72 0.852,-1.286 1.482,-1.701c0.627,-0.414 1.333,-0.62 2.116,-0.62c0.69,0 1.208,0.15 1.554,0.448Z" style="fill:#e60064;fill-rule:nonzero;"/><path d="M223.318,48.48c0.278,0.306 0.416,0.804 0.416,1.493c0,0.305 -0.089,1.068 -0.267,2.29c-0.062,0.462 -0.177,1.256 -0.347,2.381l-0.147,0.99l-1.842,0c0.037,-0.276 0.075,-0.537 0.113,-0.786c0.037,-0.249 0.07,-0.479 0.102,-0.695c0.111,-0.758 0.199,-1.382 0.266,-1.874c0.147,-1.053 0.22,-1.745 0.22,-2.079c0,-0.258 -0.051,-0.436 -0.153,-0.532c-0.102,-0.097 -0.258,-0.145 -0.468,-0.145c-0.199,0 -0.421,0.065 -0.668,0.195c-0.247,0.129 -0.492,0.303 -0.732,0.522c-0.24,0.219 -0.452,0.462 -0.634,0.732l-0.647,4.662l-1.841,0l1.034,-7.605l1.754,0l-0.106,1.524c0.351,-0.461 0.762,-0.831 1.234,-1.112c0.471,-0.279 0.961,-0.419 1.468,-0.419c0.552,0 0.968,0.152 1.245,0.458Z" style="fill:#e60064;fill-rule:nonzero;"/><path d="M226.863,53.749c0.151,0.163 0.226,0.37 0.226,0.624c0,0.388 -0.11,0.695 -0.336,0.924c-0.224,0.229 -0.524,0.343 -0.898,0.343c-0.27,0 -0.49,-0.082 -0.66,-0.247c-0.169,-0.164 -0.253,-0.378 -0.253,-0.639c0,-0.219 0.05,-0.423 0.15,-0.615c0.101,-0.191 0.243,-0.344 0.427,-0.46c0.185,-0.116 0.397,-0.173 0.637,-0.173c0.32,0 0.555,0.081 0.707,0.243Z" style="fill:#e60064;fill-rule:nonzero;"/></g></svg>