<svg id="Layer_1" data-name="Layer 1" xmlns="http://www.w3.org/2000/svg" viewBox="0 0 2981.02 674.09"><defs><style>.cls-1,.cls-2{fill:#fff;}.cls-2{font-size:217.64px;font-family:Inter-Bold, Inter;font-weight:700;}.cls-3{letter-spacing:-0.03em;}</style></defs><title>sonoday_Is_logo_white</title><g id="Merge-SVG"><path class="cls-1" d="M322.41-1377.79a18.22,18.22,0,0,1,16.19,15.42l44.94,447.25c.64,13.54-16,24.32-27.62,15.27-3.53-2.7-5.49-4.78-6.53-11.84l-44.93-447.18a17.86,17.86,0,0,1,18-18.92Zm379,37.07a18.07,18.07,0,0,1,17.36,15.44l30,298.19c.27,4.59-.24,5.94-1.24,8.32-4,9.51-17.5,13.6-26.16,7.12a18.36,18.36,0,0,1-6.8-12l-30-298.12a18,18,0,0,1,16.84-18.94Zm-447.32,45a18.06,18.06,0,0,1,17.36,15.43l30,298.06c.27,4.66-.25,5.94-1.25,8.32-4,9.51-17.5,13.6-26.16,7.12a18.08,18.08,0,0,1-6.8-12l-29.94-298a17.93,17.93,0,0,1,16.77-18.93Zm149.26-14.93a18.08,18.08,0,0,1,17.37,15.43l29.9,298.2c.83,14.81-21.48,25.84-31.27,11.34-1.45-2.13-2.22-3.36-2.88-7.91l-29.89-298.2a17.82,17.82,0,0,1,16.77-18.86ZM-44-1265.82a18.06,18.06,0,0,1,17.36,15.43l30,298.19c.89,14.75-21.57,25.66-31.27,11.34-1.45-2.13-2.22-3.35-2.88-7.91l-29.95-298.12A17.93,17.93,0,0,1-44-1265.82Zm678,7.16a12.66,12.66,0,0,1,4.94.55c6.81,1.72,11.77,6.43,12.88,14.91l15,149c.91,12.92-14.89,24-26.77,15.9-4.12-2.84-6.59-6-7.43-12.46l-15.05-149.06a14.18,14.18,0,0,1,.45-6c1.72-6.81,6.43-11.78,14.9-12.89a5.15,5.15,0,0,0,1,0Zm-148.93,15a14.66,14.66,0,0,1,5.93.77c6.39,2,10.81,6.53,11.89,14.68L517.64-1079c1,14.86-21.83,26.26-31.57,10.85-1.39-2.14-2-3.44-2.58-7.49l-14.8-149.27a15.14,15.14,0,0,1,.44-6c1.72-6.81,6.49-11.78,14.91-12.82a5.35,5.35,0,0,0,1,0Zm-596.51,59.94a12.46,12.46,0,0,1,4.93.54c6.81,1.72,11.78,6.43,12.82,14.91l15,149.07c1,14.79-21.9,26.21-31.57,10.91-1.38-2.14-2-3.44-2.57-7.48l-15-149.06a14.08,14.08,0,0,1,.44-6c1.73-6.81,6.43-11.77,14.92-12.82l1-.1Zm149.13-15a12.4,12.4,0,0,1,4.93.55c6.81,1.72,11.77,6.43,12.82,14.91l15,149.06c1,14.86-22,26.09-31.57,10.92-1.39-2.14-2-3.44-2.57-7.49l-15-149.06a14,14,0,0,1,.44-6c1.72-6.81,6.43-11.78,14.91-12.83l1-.1Zm149.06-15a12.6,12.6,0,0,1,4.93.55c6.81,1.72,11.78,6.49,12.82,14.91l14.89,148.81c1,14.8-21.9,26.15-31.57,10.92-1.38-2.14-2-3.44-2.57-7.49l-14.89-148.81a14,14,0,0,1,.44-6c1.73-6.81,6.5-11.78,14.92-12.82l1-.11ZM783-1273.63a14.78,14.78,0,0,1,5.93.77c6.39,2,10.87,6.52,11.88,14.62l15,149.06a15.23,15.23,0,0,1-1,7.84c-5.15,13.53-30.74,14-33.11-4.41l-15-149.06a14.1,14.1,0,0,1,.44-6c1.73-6.81,6.43-11.77,14.91-12.88a2.5,2.5,0,0,0,1,0Zm80.65,62.5a21.89,21.89,0,0,1,24,19.58,21.89,21.89,0,0,1-19.58,24,21.89,21.89,0,0,1-24-19.58A21.89,21.89,0,0,1,863.6-1211.13Zm-298.19,30a21.9,21.9,0,0,1,24,19.58,21.9,21.9,0,0,1-19.58,24,21.9,21.9,0,0,1-24-19.59A21.93,21.93,0,0,1,565.41-1181.17Zm-447.25,44.94a21.9,21.9,0,0,1,24,19.58,21.9,21.9,0,0,1-19.59,24,21.9,21.9,0,0,1-24-19.59A22,22,0,0,1,118.16-1136.23Zm-298.13,30a21.89,21.89,0,0,1,24,19.59,21.89,21.89,0,0,1-19.58,24,21.89,21.89,0,0,1-24-19.58A21.9,21.9,0,0,1-180-1106.28Z" transform="translate(199.66 1377.79)"/></g><text class="cls-2" transform="translate(2590.58 604.53)">IS..<tspan class="cls-3" x="333.09" y="0">.</tspan></text><path class="cls-1" d="M671.36-925.33l18.5-39.8c-21.3-14-51-23.1-80.8-23.1-49.2,0-82.3,24.3-82.3,62.9,0,75.3,113.3,51.9,113.3,92,0,13.1-11.8,20.4-31.6,20.4-22.5,0-53.5-12.5-75.3-31.9l-19.1,39.2c24,20.4,58.9,33.7,93.9,33.7,47.1,0,83.2-22.5,83.2-64.1.3-76.5-113-54.7-113-93.9,0-11.5,10.9-17.3,27-17.3,17,0,43.7,8.5,66.2,21.9Z" transform="translate(199.66 1377.79)"/><polygon class="cls-1" points="1297.22 604.36 1251.32 604.36 1251.32 391.76 1295.02 391.76 1398.32 528.36 1398.32 391.76 1443.92 391.76 1443.92 604.36 1400.22 604.36 1297.22 467.96 1297.22 604.36 1297.22 604.36"/><polygon class="cls-1" points="2453.32 604.36 2405.32 604.36 2405.32 536.96 2326.62 391.76 2374.92 391.76 2429.32 487.16 2482.52 391.76 2530.82 391.76 2453.32 535.76 2453.32 604.36 2453.32 604.36"/><path class="cls-1" d="M1431.06-987.63c-65,0-114.2,45.9-114.2,107.8,0,61.7,49.2,108.4,114.2,108.4s114.2-47.1,114.2-108.4C1545.26-941.43,1496.06-987.63,1431.06-987.63Zm.6,174.4c-35.5,0-65.6-29.2-65.6-66.5a65.38,65.38,0,0,1,65.6-65.9c35.5,0,64.4,28.6,64.4,65.9S1467.16-813.23,1431.66-813.23Z" transform="translate(199.66 1377.79)"/><path class="cls-1" d="M864.86-987.63c-65,0-114.2,45.9-114.2,107.8,0,61.7,49.2,108.4,114.2,108.4s114.2-47.1,114.2-108.4C979.06-941.43,929.86-987.63,864.86-987.63Zm.6,174.4c-35.5,0-65.6-29.2-65.6-66.5a65.38,65.38,0,0,1,65.6-65.9c35.5,0,64.4,28.6,64.4,65.9S901-813.23,865.46-813.23Z" transform="translate(199.66 1377.79)"/><path class="cls-1" d="M1708.06-986h-90.2v212.6h88.4c67.1,0,113.6-43.8,113.6-106.3C1819.86-942.63,1774-986,1708.06-986Zm1.2,172.2h-43.4v-131.8h41.3c36.5,0,63.8,27,63.8,66.2C1771-840.53,1744.76-813.83,1709.26-813.83Z" transform="translate(199.66 1377.79)"/><path class="cls-1" d="M2008.86-986h-49.5l-92.3,212.6h49.5l16.7-41.3h98.4l16.7,41.3h51.3ZM1949-853.33l33.7-82.6,33.4,82.6Z" transform="translate(199.66 1377.79)"/></svg>