<?xml version="1.0" encoding="utf-8"?>
<!-- Generator: Adobe Illustrator 19.2.1, SVG Export Plug-In . SVG Version: 6.00 Build 0)  -->
<svg version="1.1" id="layer" xmlns="http://www.w3.org/2000/svg" xmlns:xlink="http://www.w3.org/1999/xlink" x="0px" y="0px"
	 viewBox="0 0 652 652" style="enable-background:new 0 0 652 652;" xml:space="preserve">
<style type="text/css">
	.st0{fill-rule:evenodd;clip-rule:evenodd;fill:#4D4D4D;}
	.st1{fill-rule:evenodd;clip-rule:evenodd;fill:#009FEE;}
</style>
<path class="st0" d="M589,348.6L589,348.6h4.9v-1.6h-11.7v1.6h4.9v14h1.8V348.6z M576.4,359.6L576.4,359.6l-9.5-12.6h-1.6v15.7h1.6
	v-12.9l9.7,12.9h1.4v-15.7h-1.6V359.6z M560.6,346.9L560.6,346.9h-10.8v15.7h11V361h-9.2v-5.4h8.1V354h-8.1v-5.4h9V346.9z
	 M542.9,350L542.9,350v12.6h1.6v-15.7h-1.6l-5.4,8.4l-5.6-8.4h-1.6v15.7h1.6V350l5.4,8.2h0.2L542.9,350z M525.5,346.9L525.5,346.9
	h-10.8v15.7h11V361h-9.2v-5.4h8.1V354h-8.1v-5.4h9V346.9z M509.7,360.5L509.7,360.5v-6.3h-6.1v1.6h4.5v3.7c-0.9,0.9-2.5,1.6-4.3,1.6
	c-3.6,0-5.9-2.8-5.9-6.6c0-3.5,2.3-6.3,5.6-6.3c2,0,3.4,0.7,4.5,1.9l1.1-1.4c-1.6-1.4-3.2-2.1-5.6-2.1c-4.5,0-7.4,3.7-7.4,8.2
	c0,4.5,2.9,8,7.7,8C506.4,362.8,508.4,361.7,509.7,360.5z M488.6,356.8L488.6,356.8h-6.8l3.4-8L488.6,356.8z M486.1,346.9
	L486.1,346.9h-1.8l-6.8,15.7h1.8l1.8-4.2h8.1l1.8,4.2h1.8L486.1,346.9z M471.9,359.6L471.9,359.6l-9.5-12.6h-1.6v15.7h1.6v-12.9
	l9.7,12.9h1.3v-15.7h-1.6V359.6z M452.5,356.8L452.5,356.8h-6.8l3.4-8L452.5,356.8z M450.1,346.9L450.1,346.9h-1.6l-7,15.7h1.8
	l1.8-4.2h8.1l1.8,4.2h1.8L450.1,346.9z M435.9,350L435.9,350v12.6h1.6v-15.7h-1.6l-5.6,8.4l-5.4-8.4h-1.6v15.7h1.6V350l5.4,8.2
	L435.9,350z M411.3,346.9L411.3,346.9h-10.8v15.7h1.6v-6.8h8.3v-1.6h-8.3v-5.6h9.2V346.9z M394.2,354.9L394.2,354.9
	c0,3.5-2.5,6.3-6.1,6.3c-3.4,0-5.8-2.8-5.8-6.6c0-3.5,2.5-6.3,5.8-6.3S394.2,351.1,394.2,354.9z M395.8,354.7L395.8,354.7
	c0-4.2-2.9-8-7.7-8c-4.5,0-7.7,3.7-7.7,8.2c0,4.2,3.2,8,7.7,8C392.8,362.8,395.8,359.1,395.8,354.7z"/>
<path class="st0" d="M610.7,330.1L610.7,330.1h10.1v-1.6h-8.6v-14h-1.6V330.1z M604.2,322.4L604.2,322.4c0,3.5-2.5,6.3-5.9,6.3
	c-3.4,0-5.8-2.8-5.8-6.6c0-3.5,2.5-6.3,5.8-6.3C601.7,315.9,604.2,318.7,604.2,322.4z M606,322.2L606,322.2c0-4.2-3.1-8-7.7-8
	c-4.5,0-7.7,3.7-7.7,8.2c0,4.2,3.2,8,7.7,8C602.9,330.4,606,326.6,606,322.2z M585.1,322.4L585.1,322.4c0,3.5-2.5,6.3-6.1,6.3
	c-3.4,0-5.9-2.8-5.9-6.6c0-3.5,2.5-6.3,5.9-6.3C582.6,315.9,585.1,318.7,585.1,322.4z M586.7,322.2L586.7,322.2c0-4.2-2.9-8-7.6-8
	c-4.5,0-7.7,3.7-7.7,8.2c0,4.2,3.1,8,7.7,8C583.7,330.4,586.7,326.6,586.7,322.2z M565.1,323.1L565.1,323.1v7h1.8v-15.7h-1.8v7h-8.6
	v-7h-1.8v15.7h1.8v-7H565.1z M550.6,327.6L550.6,327.6l-1.1-1.2c-1.3,1.6-2.7,2.3-4.7,2.3c-3.4,0-5.8-2.8-5.8-6.6
	c0-3.5,2.5-6.3,5.8-6.3c2,0,3.4,0.9,4.7,2.1l1.1-1.2c-1.6-1.6-3.1-2.6-5.8-2.6c-4.5,0-7.7,3.7-7.7,8.2c0,4.5,3.2,8,7.7,8
	C547.5,330.4,549.1,329.2,550.6,327.6z M524.3,318.4L524.3,318.4c0-1.4,1.3-2.6,3.4-2.6c1.3,0,2.9,0.5,4.3,1.6l0.9-1.4
	c-1.6-1.2-3.2-1.9-5.2-1.9c-2.9,0-4.9,1.9-4.9,4.5c0,2.6,1.6,3.7,4.9,4.4c3.2,0.7,4.1,1.4,4.1,3c0,1.4-1.4,2.6-3.4,2.6
	c-2.3,0-3.6-0.7-5.2-2.1l-1.1,1.2c1.8,1.6,3.8,2.6,6.1,2.6c3.2,0,5.2-1.9,5.2-4.5c0-2.3-1.6-3.7-4.9-4.4
	C525.2,320.8,524.3,319.8,524.3,318.4z M511,314.5L511,314.5h-10.8v15.7H511v-1.6h-9.2v-5.4h8.3v-1.6h-8.3v-5.4h9.2V314.5z
	 M491,316.1L491,316.1h4.9v-1.6h-11.7v1.6h4.9v14h1.8V316.1z M478.6,324.5L478.6,324.5h-7l3.6-8L478.6,324.5z M475.9,314.5
	L475.9,314.5h-1.6l-6.7,15.7h1.6l1.8-4.2h8.3l1.6,4.2h2L475.9,314.5z M463.8,314.5L463.8,314.5h-1.8v9.1c0,3.5-1.6,5.2-4.5,5.2
	c-2.7,0-4.5-1.9-4.5-5.2v-9.1h-1.8v9.1c0,4.5,2.7,6.8,6.3,6.8c3.8,0,6.3-2.3,6.3-7V314.5z M445.1,322.4L445.1,322.4
	c0,3.3-2.5,6.1-6.3,6.1h-3.4v-12.4h3.4C442.6,316.1,445.1,318.9,445.1,322.4z M446.9,322.2L446.9,322.2c0-4.2-3.4-7.7-8.1-7.7h-5.2
	v15.7h5.2C443.5,330.1,446.9,326.6,446.9,322.2z M425.5,324.5L425.5,324.5h-7l3.4-8L425.5,324.5z M422.8,314.5L422.8,314.5h-1.6
	l-6.8,15.7h1.6l1.8-4.2h8.1l1.8,4.2h1.8L422.8,314.5z M409.3,319.1L409.3,319.1c0,2.1-1.6,3.3-3.8,3.3h-4.7v-6.3h4.7
	C407.9,316.1,409.3,317.3,409.3,319.1z M411.5,330.1L411.5,330.1l-4.7-6.3c2.5-0.5,4.1-2.1,4.1-4.7c0-2.8-2-4.7-5.4-4.7h-6.3v15.7
	h1.6v-6.1h4.3l4.5,6.1H411.5z M394.2,328L394.2,328v-6.3h-6.3v1.6h4.7v4c-1.1,0.7-2.7,1.4-4.3,1.4c-3.8,0-6.1-2.8-6.1-6.6
	c0-3.3,2.5-6.3,5.6-6.3c2.2,0,3.6,0.7,4.7,1.9l1.1-1.4c-1.6-1.4-3.1-2.1-5.6-2.1c-4.5,0-7.7,3.7-7.7,8.2c0,4.5,2.9,8,7.7,8
	C390.6,330.4,392.8,329.2,394.2,328z"/>
<path class="st0" d="M467.9,295.8L467.9,295.8v-6.2h-6.3v1.6h4.5v3.9c-0.9,0.7-2.5,1.4-4.3,1.4c-3.6,0-5.8-2.5-5.8-6.2
	c0-3.5,2.3-6.5,5.6-6.5c2.3,0,3.4,0.7,4.5,1.9l1.1-1.4c-1.4-1.4-2.9-2.1-5.6-2.1c-4.5,0-7.4,3.7-7.4,8.1c0,4.4,2.9,7.9,7.6,7.9
	C464.3,298.1,466.3,296.9,467.9,295.8z M447.6,297.9L447.6,297.9h1.8v-15.5h-1.8V297.9z M440.7,284L440.7,284l-9.7,12.7v1.2h11.9
	v-1.6h-9.7l9.7-12.7v-1.2h-11.7v1.6H440.7z M426.7,287.4L426.7,287.4c0,2.1-1.6,3.5-4.1,3.5h-3.6v-7h3.8
	C425.1,284,426.7,285.1,426.7,287.4z M428.5,287.4L428.5,287.4c0-3.2-2.3-5.1-5.6-5.1h-5.6v15.5h1.8v-5.3h3.6
	C425.8,292.5,428.5,290.7,428.5,287.4z M410,297.9L410,297.9h1.8v-15.5H410V297.9z M405.3,282.3L405.3,282.3h-10.8v15.5h11v-1.6
	h-9.2v-5.3h8.1v-1.6h-8.1V284h9V282.3z M381.2,297.9L381.2,297.9h10.1v-1.6H383v-13.9h-1.8V297.9z"/>
<polygon class="st1" points="365.5,362.8 365.5,362.8 365.5,346.6 326.3,346.6 326.3,282.5 309.2,282.5 309.2,362.8 "/>
<path class="st0" d="M290.5,362.8L290.5,362.8v-80.3h-17.1v31.7h-31.6v-31.7h-17.4v80.3h17.4v-32.2h31.6v32.2H290.5z M205.7,362.8
	L205.7,362.8v-80.3h-17.1v31.7h-31.8v-31.7h-17.1v80.3h17.1v-32.2h31.8v32.2H205.7z"/>
<path class="st0" d="M70.2,271.4L70.2,271.4c-26.6,0-48.2,22.1-48.2,49.2s21.6,49.2,48.2,49.2s48.2-22.1,48.2-49.2
	S96.7,271.4,70.2,271.4z M70.2,370.9L70.2,370.9c-27.2,0-49.3-22.5-49.3-50.4s22.1-50.4,49.3-50.4s49.3,22.5,49.3,50.4
	S97.4,370.9,70.2,370.9z"/>
<path class="st0" d="M67.4,343.4L67.4,343.4l-2.9,1v0.2c0.5,0.4,1.1,1,2.5,0.8c0-0.2,0-0.2,0.2-0.2l1.1-0.2
	C68.1,344.4,67.9,343.8,67.4,343.4z"/>
<path class="st0" d="M62.9,344L62.9,344c0.9-1.6,3.2-2.3,3.2-2.3l-0.7-0.7c0,0-1.8,1.4-4.3,0c-2.3-1.4-6.1-5.1-6.1-5.1l-1.4-16.5
	c0-3.3,0.7-5.1,3.4-7.2c2.3-1.6,7.4-5.1,7.4-5.1l-0.2-0.7c-2.7,1.4-6.5,3.3-8.1,4.4c-2.3,1.9-3.8,4.2-4.1,7.7
	c-0.2,3.3,0.9,12.8,1.1,15.6c0.5,3.3,0.9,3.7,3.2,5.3L62.9,344z"/>
<path class="st0" d="M83.2,339.6L83.2,339.6l-0.7,0.7l3.6,6.7c-6.5-0.2-12.9,2.8-16,5.5c-3.8-3.2-10.8-6.2-18.3-5.5l-2.5,3.7
	c8.4-2.1,15.6-0.2,20.8,2.8c5-3,12.2-4.8,20.5-2.8l-2.5-3.7L83.2,339.6z"/>
<path class="st0" d="M63.8,294.3L63.8,294.3c0.7-0.4,2.2-1.3,3.9-1.6c2-0.2,4.4,0,6.1,0.9c1.1,0.7,1.8,1.3,2,1.6l1.3-1.6
	c0,0-3.7-2.9-7.5-2.9c-3.9,0-6.6,2.9-6.6,2.9L63.8,294.3z"/>
<path class="st0" d="M87.9,318.5L87.9,318.5c-0.2-3.5-1.6-5.8-4.1-7.7c-2.3-1.6-7.9-4.6-10.1-5.8c1.1-2.6,1.8-6.3,1.6-9.8
	c-1.1-0.9-4.1-1.6-5.9-1.6c-1.1,0-2.3,0.2-3.2,0.7c2.3,0,3.2,0.7,3.2,2.1v7.7c0,1.4-0.5,1.9-1.1,1.9c-0.9,0-1.8-0.5-2.5-1.2
	c0.5,1.2,2.3,2.8,4.3,2.8v35l-0.2-0.2l-7.2-10.2v-10.4c0-3.9-3.4-4.9-3.4-4.9l0.7,16.5l8.8,9.3c0.7,0.9,1.1,1.4,1.1,2.3l0.2,2.5
	c0,0,0,0,0.2,0c0.2-0.2,0.7-0.5,0.7-0.9v-1.4c0-0.9-0.2-1.4-0.7-2.1l7.4-9.3l0.9-16.9c0,0,3.4,0.9,3.4,4.9l-1.4,13l-6.5,7.2l0.9,1.6
	c0,0,6.1-3.7,8.6-5.6c2.3-1.6,2.5-2.5,2.9-5.3C87,330.1,88.1,321.7,87.9,318.5z"/>
<path class="st0" d="M80.2,362.1L80.2,362.1c0,0.5-0.2,0.9-0.9,0.9c-0.7,0.2-1.1,0-1.1-0.5c-0.2-0.5,0.2-0.9,0.9-0.9
	C79.6,361.4,80,361.6,80.2,362.1z M79.6,359.5L79.6,359.5c0,0.5-0.2,0.9-0.7,0.9c-0.7,0.2-0.9,0-1.1-0.5c0-0.5,0.2-0.9,0.7-0.9
	C79.1,358.9,79.3,359.1,79.6,359.5z M81.4,361.9L81.4,361.9c0-0.7-0.5-0.9-1.1-1.2c0.5-0.5,0.7-0.9,0.5-1.6
	c-0.2-0.9-1.1-1.4-2.5-1.2c-1.1,0.2-1.8,1.2-1.6,2.1c0,0.7,0.5,0.9,0.9,1.2c-0.5,0.4-0.7,0.9-0.7,1.8c0.2,0.9,1.4,1.4,2.7,1.2
	C80.9,363.9,81.8,363,81.4,361.9z M73,360.9L73,360.9c0,0.5-0.5,0.9-0.9,0.9c-0.7,0-1.1-0.2-1.1-0.9c-0.2-0.5,0.2-0.9,0.9-0.9
	S73,360.2,73,360.9z M74.4,361.6L74.4,361.6c0-1.2-0.5-1.8-0.9-2.3c-0.5-0.5-0.9-0.5-1.8-0.5c-1.4,0-2.3,0.9-2,2.3
	c0,1.2,0.9,1.8,2.3,1.8c0.5,0,0.9-0.2,1.1-0.5c0,0.7-0.2,1.4-1.1,1.4c-0.5,0-0.9,0-1.4-0.5l-0.7,1.2c0.7,0.5,1.4,0.7,2,0.7
	C73.7,365.1,74.6,363.7,74.4,361.6z M66,363.3L66,363.3c-0.2,0.2-0.5,0.7-1.1,0.5c-0.7,0-1.1-0.5-1.1-0.7c0.2-0.7,0.7-0.9,1.1-0.7
	C65.6,362.3,66,362.6,66,363.3z M66,360.5L66,360.5c0,0.5-0.5,0.7-0.9,0.7c-0.5,0-0.9-0.5-0.9-0.9c0.2-0.2,0.5-0.7,1.1-0.5
	C65.8,359.8,66,360.2,66,360.5z M67.2,363.3L67.2,363.3c0.2-0.7-0.2-1.2-0.7-1.4c0.5-0.2,0.7-0.7,0.9-1.4c0-0.9-0.7-1.9-2-1.9
	c-1.4-0.2-2.3,0.5-2.3,1.4c0,0.7,0.2,1.2,0.7,1.4c-0.7,0.2-1.1,0.7-1.1,1.4c-0.2,1.2,0.7,2.1,2,2.1C66,365.1,67.2,364.4,67.2,363.3z
	 M58.2,357.5L58.2,357.5v1.2h1.1l-1.1,4.9l1.1,0.2l1.6-6l-0.9-0.2H58.2z"/>
<path class="st0" d="M99.6,345.5L99.6,345.5l2,1.4l1.6-2.1l-0.9-0.7l-0.9,1.2l-0.7-0.5c0-0.5,0.2-0.9,0.5-1.4
	c0.7-0.9,1.8-0.9,2.7-0.5c0.7,0.7,1.1,1.8,0.5,2.8c-0.5,0.4-0.9,0.7-1.4,0.9l0.2,1.2c0.9-0.2,1.6-0.5,2-1.4c1.1-1.6,0.7-3.5-0.7-4.6
	c-1.4-0.9-3.4-0.7-4.3,0.9C99.6,343.7,99.4,344.6,99.6,345.5z M103,338.4L103,338.4l5.4,2.5l0.7-1.2l-5.4-2.8L103,338.4z M104.6,335
	L104.6,335l1.1,0.2l1.1-3.2l2.5,4.4l1.1,0.5l1.4-4.8l-0.9-0.5l-1.1,3.2l-2.7-4.4l-0.9-0.4L104.6,335z M110.4,328.1L110.4,328.1
	c-0.5-0.2-0.9-0.7-0.7-1.2v-1.2l2,0.2l-0.2,1.2C111.6,327.6,111.1,328.1,110.4,328.1z M110.2,329.4L110.2,329.4
	c1.4,0,2.3-0.7,2.5-2.1l0.5-2.5l-6.1-0.9l-0.2,1.4l1.8,0.2v1.2C108.4,328.1,108.8,329.2,110.2,329.4z M107,321.4L107,321.4h6.1V320
	H107V321.4z M107,317.7L107,317.7l1.1-0.2l-0.5-3.4h1.4l0.2,2.8l1.4-0.2l-0.5-2.8l1.1-0.2l0.5,3.2l1.1-0.2l-0.5-4.6l-6.1,0.9
	L107,317.7z M105.9,310.8L105.9,310.8l1.1-0.2l-0.9-3l4.5-1.6l-0.5-1.1l-5.6,1.8L105.9,310.8z M101.6,301.1L101.6,301.1l1.1-0.7
	l-2-2.8l1.1-0.7l1.6,2.3l1.1-0.7l-1.8-2.3l1.1-0.7l1.8,2.8l0.9-0.7l-2.5-3.9l-5,3.5L101.6,301.1z M97.8,295.6L97.8,295.6l0.7-0.7
	l-2-2.3l3.4-3.5l-0.9-0.9l-4.3,4.4L97.8,295.6z M94.2,288.7L94.2,288.7l2-2.8l-1.1-0.7l-2,2.8c-0.5,0.9-1.1,0.9-1.8,0.5
	c-0.7-0.5-0.7-1.2-0.2-2.1l2-2.8l-1.1-0.7l-2,2.8c-0.9,1.6-0.7,3,0.7,3.9C91.9,290.5,93.3,290.3,94.2,288.7z M86.3,286.8L86.3,286.8
	l2.5-5.5l-1.1-0.7l-1.1,2.3l-2.3-0.9l1.1-2.3l-1.4-0.5l-2.3,5.5l1.1,0.7l0.9-2.3l2.3,0.9l-0.9,2.3L86.3,286.8z M79.8,283.4
	L79.8,283.4l-0.7-1.2c-0.7,0.4-1.1,0.4-1.8,0.4c-0.9-0.2-1.6-1.1-1.4-2.3c0.2-0.9,1.1-1.8,2.3-1.6c0.5,0.2,0.9,0.5,1.4,1.2l0.9-0.9
	c-0.5-0.7-0.9-1.1-2-1.4c-2-0.5-3.4,0.7-3.8,2.5c-0.2,1.8,0.7,3.5,2.5,3.7C78.2,284.1,79.1,283.8,79.8,283.4z M72.3,281.3
	L72.3,281.3c0-1.2-0.7-1.6-1.8-1.8c-1.1-0.2-1.4-0.5-1.4-0.9c0-0.2,0.2-0.5,0.7-0.5c0.7,0,1.1,0.2,1.6,0.5l0.7-0.9
	c-0.5-0.5-1.4-0.7-2.3-0.7c-1.1,0-2,0.7-2,1.8c0,1.2,0.7,1.6,2,1.8c0.9,0.2,1.1,0.5,1.1,0.7c0,0.5-0.2,0.7-0.9,0.7s-1.1-0.2-1.8-0.7
	l-0.7,0.9c0.7,0.7,1.6,0.9,2.5,0.9C71.4,283.1,72.3,282.5,72.3,281.3z M65.6,283.4L65.6,283.4l-1.1-6.2l-1.4,0.2l0.5,2.5l-2.5,0.5
	l-0.5-2.5l-1.1,0.2l0.9,6.2l1.4-0.2l-0.5-2.5l2.5-0.5l0.5,2.5L65.6,283.4z M57.9,284.1L57.9,284.1l-1.1-0.5
	c-0.2,0.5-0.5,0.9-1.1,1.2c-0.9,0.5-2,0-2.3-1.2c-0.5-0.9-0.2-2.1,0.9-2.3c0.5-0.2,0.9-0.2,1.6,0l0.5-1.4c-0.7-0.2-1.6-0.2-2.5,0.2
	c-1.8,0.7-2.5,2.5-1.8,4.1c0.7,1.6,2.5,2.3,4.1,1.6C57.3,285.5,57.7,285,57.9,284.1z M49.1,286.1L49.1,286.1
	c0.5,0.7,0.5,1.8-0.5,2.5c-0.9,0.7-2,0.2-2.7-0.7c-0.5-0.7-0.5-1.8,0.5-2.5C47.3,284.8,48.5,285.2,49.1,286.1z M50.3,285.2
	L50.3,285.2c-0.9-1.4-2.9-1.8-4.5-0.9c-1.4,1.2-1.8,3.2-0.9,4.6c1.1,1.4,2.9,1.8,4.5,0.9C50.9,288.7,51.2,286.6,50.3,285.2z
	 M45.3,292.8L45.3,292.8l-4.3-4.4l-0.9,0.9l1.6,1.8l-1.8,1.6l-1.6-1.6l-0.9,0.9l4.3,4.4l0.9-0.9l-1.8-1.9l1.8-1.8l1.8,1.8
	L45.3,292.8z M38.8,297.2L38.8,297.2c-0.9-0.5-1.6-0.2-2.5,0.7c-0.9,0.7-1.1,0.9-1.4,0.7c-0.2-0.2-0.5-0.4,0-0.9
	c0.2-0.5,0.7-0.9,1.4-1.2l-0.5-1.2c-0.9,0.2-1.6,0.7-2,1.6c-0.7,0.9-0.5,2.1,0.5,2.8c0.9,0.7,1.8,0.2,2.7-0.7
	c0.7-0.7,0.9-0.7,1.4-0.7v0.2c0.2,0,0.2,0.5,0,0.9c-0.5,0.7-1.1,0.9-1.8,1.2l0.5,1.2c0.9-0.2,1.8-0.7,2.3-1.6
	C39.9,299,39.9,297.9,38.8,297.2z M37,303.9L37,303.9l-1.1-0.5l-1.1,2.8l-4.5-1.8l-0.5,1.2l5.4,2.5L37,303.9z M34.5,310.3
	L34.5,310.3l-1.1-0.2l-0.9,3.2l-1.1-0.2l0.7-3l-1.1-0.2l-0.7,2.8l-1.1-0.2l0.7-3.2l-1.1-0.2l-1.1,4.6l5.9,1.4L34.5,310.3z
	 M30.2,318.1L30.2,318.1c0.9,0,1.8,0.7,1.6,1.8v1.2l-3.6-0.2v-1.2C28.2,318.6,29.1,317.9,30.2,318.1z M30.2,316.5L30.2,316.5
	c-1.8,0-3.2,1.4-3.2,3.2l-0.2,2.3l6.1,0.5l0.2-2.5C33.1,318.1,31.8,316.8,30.2,316.5z M33.1,325.1L33.1,325.1l-5.9,0.9l0.2,1.4
	l3.6-0.7l-3.2,3.5l0.2,1.4l5.9-1.2l-0.2-1.4l-3.8,0.7l3.4-3.4L33.1,325.1z M33.1,335.6L33.1,335.6l0.7,1.4h-2.3L33.1,335.6z
	 M34.7,332.2L34.7,332.2L30,337l0.5,1.2l6.5,0.2l-0.5-1.4h-1.4l-1.1-2.3l1.1-1.2L34.7,332.2z M38.1,340L38.1,340l-5.2,3.5l0.9,1.2
	l1.8-1.4l1.6,2.1l-2,1.4l0.7,1.2l5-3.5l-0.7-1.2l-2,1.4l-1.4-2.1l2-1.4L38.1,340z"/>
</svg>
