<svg xmlns="http://www.w3.org/2000/svg" viewBox="0 0 434.54 94.18"><path d="M378.29 92.38h-16.06v-73.7C357.5 43.91 353 68 348.42 92.42h-16.36q-6.72-35.19-13.42-70.37l-.65.06v70.22h-16.22V.32h27.62q5.17 30.2 10.35 60.35h1c3.42-20.1 6.83-40.2 10.27-60.47h27.32zM0 .31h16.93v32.5l1.29.39L35.23.31h17.64c-1.75 3.48-3.19 6.42-4.7 9.32-4.55 8.71-9 17.47-13.76 26.07a9.28 9.28 0 00-.47 8.92c5.91 14 11.59 28 17.34 42 .68 1.66 1.27 3.35 2.14 5.66H34.8L18.12 50.85l-1 .18v41.38H0zM171.41.3h44.16v13.75H189v21.54h25.54v14.46h-25.65v28h28.24v14.3h-45.72zM388.92 92.3V.48h44.62V14h-27.29v21.35h25.45V50.1h-25.48v27.95h28.32V92.3zM122.36.28h17v77.81H164v14.29h-41.64zM283.74 52.92v8h-48.53V49.51L265 42.09v-.47h-29.69v-7.95h48.19v11.39l-29.95 7.31.12.55zM276.23 83.44V75.9l7.08-1.63v-9.13l-48.06 9v10.62l7.15 1.46 38.49 8h3v-8.91zm-8.73-1.14L251.7 80c.06-.32.13-.64.19-1l15.61-2.15zM98.31.37h-20c-6 30.75-11.86 61.2-17.83 92h17.23c.92-4.91 1.78-9.44 2.68-14.23h15.18c.88 5 1.68 9.54 2.49 14.15h17.42C109.7 61.31 104 30.93 98.31.37zM82.54 62.83c1.85-12 3.62-23.59 5.4-35.18h.8c1.66 11.6 3.32 23.19 5 35.18zM283.65 9.64c-.41-5.94-3.55-9.29-9-9.45C264.47-.09 254.3 0 244.14.16c-5 .09-8.36 3.24-8.85 8-.62 6-.15 12.19-.15 18.44h48.59c0-6 .27-11.5-.08-16.96zm-8.2 7.51h-32.84c-.49-7 .24-7.92 6.3-7.94h20.91c6.05.04 7.1 1.47 5.63 7.94z"/></svg>