<?xml version="1.0" encoding="utf-8"?>
<!-- Generator: Adobe Illustrator 24.0.1, SVG Export Plug-In . SVG Version: 6.00 Build 0)  -->
<svg version="1.1" id="Layer_1" xmlns:serif="http://www.serif.com/"
	 xmlns="http://www.w3.org/2000/svg" xmlns:xlink="http://www.w3.org/1999/xlink" x="0px" y="0px" viewBox="0 0 1920 1080"
	 style="enable-background:new 0 0 1920 1080;" xml:space="preserve">
<style type="text/css">
	.st0{fill:#FFFFFF;}
</style>
<g id="Merge-SVG" serif:id="Merge SVG">
	<path class="st0" d="M402.3,854.8c-65,0-114.2,45.9-114.2,107.8c0,61.7,49.2,108.4,114.2,108.4s114.2-47.1,114.2-108.4
		C516.5,901,467.3,854.8,402.3,854.8z M968.5,854.8c-65,0-114.2,45.9-114.2,107.8c0,61.7,49.2,108.4,114.2,108.4
		s114.2-47.1,114.2-108.4C1082.7,901,1033.5,854.8,968.5,854.8z M208.8,917.1l18.5-39.8c-21.3-14-51-23.1-80.8-23.1
		c-49.2,0-82.3,24.3-82.3,62.9c0,75.3,113.3,51.9,113.3,92c0,13.1-11.8,20.4-31.6,20.4c-22.5,0-53.5-12.5-75.3-31.9l-19.1,39.2
		c24,20.4,58.9,33.7,93.9,33.7c47.1,0,83.2-22.5,83.2-64.1c0.3-76.5-113-54.7-113-93.9c0-11.5,10.9-17.3,27-17.3
		C159.6,895.2,186.3,903.7,208.8,917.1L208.8,917.1z M635,1069h-45.9V856.4h43.7L736.1,993V856.4h45.6V1069H738L635,932.6V1069
		L635,1069z M1243.7,1069h-88.4V856.4h90.2c65.9,0,111.8,43.4,111.8,106.3C1357.3,1025.2,1310.8,1069,1243.7,1069L1243.7,1069z
		 M1791.1,1069h-48v-67.4l-78.7-145.2h48.3l54.4,95.4l53.2-95.4h48.3l-77.5,144L1791.1,1069L1791.1,1069z M1637.1,1069h-51.3
		l-16.7-41.3h-98.4L1454,1069h-49.5l92.3-212.6h49.5L1637.1,1069L1637.1,1069z M969.1,896.8c35.5,0,64.4,28.6,64.4,65.9
		c0,37.4-28.9,66.5-64.4,66.5s-65.6-29.2-65.6-66.5C903.5,925.3,933.3,896.8,969.1,896.8z M402.9,896.8c35.5,0,64.4,28.6,64.4,65.9
		c0,37.4-28.9,66.5-64.4,66.5s-65.6-29.2-65.6-66.5C337.3,925.3,367.1,896.8,402.9,896.8z M1244.6,896.8h-41.3v131.8h43.4
		c35.5,0,61.7-26.7,61.7-65.6C1308.4,923.8,1281.1,896.8,1244.6,896.8L1244.6,896.8z M1553.5,989.1l-33.4-82.6l-33.7,82.6H1553.5z
		 M973.1,9c12.5,2.6,21.8,13.1,22.5,26.2v694.3c-1.1,20.9-28.3,34.9-44.8,19.2c-5-4.7-7.7-8.2-8.2-19.2V35.3
		C943.4,19.7,956.6,7.4,973.1,9L973.1,9z M1549.8,124.5c13.3,1.7,23.8,12.9,24.3,26.4v462.9c-0.3,7.1-1.3,9.1-3.2,12.6
		c-7.6,14-29,18.2-41.3,6.9c-5.4-5-8.2-12.1-8.6-19.5V151C1521.7,136.1,1534.3,123.9,1549.8,124.5L1549.8,124.5z M855.4,124.5
		c13.3,1.7,23.8,12.9,24.3,26.4l0.1,462.7c-0.3,7.2-1.3,9.1-3.2,12.6c-7.6,14-29,18.2-41.3,6.9c-5.4-5-8.3-12.1-8.6-19.5V151
		C827.3,136.1,839.9,123.9,855.4,124.5L855.4,124.5z M1087.1,124.6c13.3,1.7,23.8,12.9,24.3,26.4l-0.1,462.9
		c-1,22.9-37,36.4-49.8,12.6c-1.9-3.5-2.9-5.5-3.2-12.6l0.1-462.9C1059,136.1,1071.6,123.9,1087.1,124.6L1087.1,124.6z M392.7,124.5
		c13.3,1.7,23.8,12.9,24.3,26.4v462.9c-0.9,22.8-37.1,36.1-49.8,12.6c-1.9-3.5-2.9-5.5-3.2-12.6V151
		C364.6,136.1,377.2,123.9,392.7,124.5L392.7,124.5z M1433.5,240.2c4.7,0.4,5.5,0.8,7.5,1.6c10.2,3.7,17.1,11.7,17.5,24.9l0.1,231.4
		c-0.6,20-26.6,34.6-43.6,20.3c-5.9-5-9.2-10.2-9.5-20.3l-0.1-231.4c0.1-5,0.6-6.4,1.6-9.1c3.7-10.2,11.7-17.1,24.9-17.5
		C1432.4,240.2,1433,240.2,1433.5,240.2L1433.5,240.2z M1202.3,240.2c5,0.4,6.4,1,9,2.1c9.5,4.1,15.6,11.7,16,24.4l-0.3,231.7
		c-0.7,23-37.6,37-50.2,11.8c-1.8-3.5-2.6-5.6-2.8-11.9l0.3-231.7c0.2-5,0.6-6.4,1.6-9.1c3.7-10.2,11.8-17.1,24.9-17.4
		C1201.3,240.2,1201.8,240.2,1202.3,240.2L1202.3,240.2z M276.3,240.2c4.7,0.4,5.5,0.8,7.5,1.6c10.2,3.7,17.1,11.7,17.4,24.9v231.4
		C300.5,521,263.5,535,251,510c-1.8-3.5-2.6-5.6-2.8-11.9V266.7c0.1-5,0.6-6.4,1.6-9.1c3.7-10.2,11.7-17.1,24.9-17.4
		C275.3,240.2,275.8,240.2,276.3,240.2L276.3,240.2z M507.8,240.2c4.7,0.4,5.5,0.8,7.5,1.6c10.2,3.7,17.1,11.7,17.4,24.9v231.4
		c-0.7,23-37.8,36.7-50.2,11.9c-1.8-3.5-2.6-5.6-2.8-11.9V266.7c0.1-5,0.6-6.4,1.6-9.1c3.7-10.2,11.7-17.1,24.9-17.4
		C506.7,240.2,507.3,240.2,507.8,240.2L507.8,240.2z M739.2,240.2c4.7,0.4,5.5,0.8,7.5,1.6c10.2,3.7,17.1,11.8,17.4,24.9l-0.1,231
		c-0.7,22.9-37.7,36.8-50.2,11.9c-1.8-3.5-2.6-5.6-2.8-11.9l0.1-231c0.1-5,0.6-6.4,1.6-9.1c3.7-10.2,11.8-17.1,24.9-17.4
		C738.2,240.2,738.7,240.2,739.2,240.2L739.2,240.2z M1664.8,240.2c5,0.4,6.4,1,9,2.1c9.5,4.1,15.7,11.7,16,24.3l0.1,231.4
		c-0.2,6.3-1.1,8.4-2.8,11.9c-10,20-49.4,16.7-50.2-11.9l-0.1-231.4c0.1-5,0.6-6.4,1.6-9.1c3.7-10.2,11.7-17.1,24.9-17.5
		C1663.8,240.2,1664.3,240.2,1664.8,240.2L1664.8,240.2z M1779.1,348.7c18.6,0,33.8,15.1,33.8,33.8c0,18.6-15.1,33.8-33.8,33.8
		c-18.6,0-33.8-15.1-33.8-33.8C1745.3,363.8,1760.5,348.7,1779.1,348.7z M1316.2,348.7c18.6,0,33.8,15.1,33.8,33.8
		c0,18.6-15.1,33.8-33.8,33.8c-18.6,0-33.8-15.1-33.8-33.8C1282.5,363.8,1297.6,348.7,1316.2,348.7z M621.9,348.7
		c18.6,0,33.8,15.1,33.8,33.8c0,18.6-15.1,33.8-33.8,33.8c-18.6,0-33.8-15.1-33.8-33.8C588.2,363.8,603.3,348.7,621.9,348.7z
		 M159.1,348.7c18.6,0,33.8,15.1,33.8,33.8c0,18.6-15.1,33.8-33.8,33.8c-18.6,0-33.8-15.1-33.8-33.8
		C125.3,363.8,140.5,348.7,159.1,348.7z"/>
</g>
</svg>
