<?xml version="1.0" encoding="utf-8"?>
<!-- Generator: Adobe Illustrator 23.0.1, SVG Export Plug-In . SVG Version: 6.00 Build 0)  -->
<svg version="1.1" id="Ebene_1" xmlns="http://www.w3.org/2000/svg" xmlns:xlink="http://www.w3.org/1999/xlink" x="0px" y="0px"
	 width="567.2px" height="84.3px" viewBox="0 0 567.2 84.3" style="enable-background:new 0 0 567.2 84.3;" xml:space="preserve">
<style type="text/css">
	.st0{clip-path:url(#SVGID_2_);}
</style>
<g>
	<defs>
		<rect id="SVGID_1_" x="0" y="0" width="567.2" height="84.3"/>
	</defs>
	<clipPath id="SVGID_2_">
		<use xlink:href="#SVGID_1_"  style="overflow:visible;"/>
	</clipPath>
	<path class="st0" d="M378.2,35.2c0.9-4.2-0.2-5.5-2.8-5.5c-2.7,0-4.4,2.3-5.1,5.5l-7.8,36.9h-20l7.8-36.9c0.9-4.2-0.2-5.5-2.8-5.5
		c-2.7,0-4.4,2.3-5.1,5.5l-7.8,36.9h-20l11.8-55.7h19.4l-1.3,6.4h0.2c4.1-5.5,9.7-7.8,16.4-7.8c5.4,0,9.9,2.3,11.6,7.8
		c4-5.5,9.6-7.8,16.3-7.8c7.1,0,12.8,3.9,10.6,14.1l-9.2,43h-20L378.2,35.2z"/>
	<path class="st0" d="M418.6,60.6c3.6,0,5.1-3.4,7.9-16.4c2.7-13,2.6-16.4-1-16.4c-3.6,0-5.2,3.4-7.8,16.4
		C414.9,57.2,415,60.6,418.6,60.6 M446.5,44.2c-3.4,15.8-8.7,29.4-30.7,29.4c-22,0-21.5-13.6-18.1-29.4c3.3-15.7,8.5-29.2,30.6-29.2
		C450.3,14.9,449.8,28.5,446.5,44.2"/>
	<path class="st0" d="M459.8,0h20l-3.5,16.4h7l-2.8,13h-7l-5.3,24.8c-0.7,3.6-0.6,5.1,2.7,5.1c1.5,0,2.6-0.1,3.3-0.3l-2.8,13.3
		c-1.8,0.2-7.1,0.6-10.1,0.6c-11.4,0-17-0.4-14.3-13l6.5-30.6h-6.1l2.8-13h6.1L459.8,0z"/>
	<path class="st0" d="M497,60.6c3.6,0,5.1-3.4,7.9-16.4c2.7-13,2.6-16.4-1-16.4c-3.6,0-5.2,3.4-7.8,16.4
		C493.3,57.2,493.4,60.6,497,60.6 M524.9,44.2c-3.4,15.8-8.7,29.4-30.7,29.4c-22,0-21.5-13.6-18.1-29.4c3.3-15.7,8.5-29.2,30.6-29.2
		C528.8,14.9,528.2,28.5,524.9,44.2"/>
	<path class="st0" d="M532.2,16.4h19.4l-1.8,8.2h0.2c3.1-5.4,8.4-9.7,13.9-9.7c2.2,0,2.8,0.2,3.3,0.3l-3.8,18.2
		c-0.7-0.1-1.5-0.2-2.5-0.3c-0.8-0.1-1.6-0.1-3.7-0.1c-6.9,0-9.4,3.6-10.7,10.2l-6.2,28.8h-20L532.2,16.4z"/>
	<path class="st0" d="M13.2,1.8h19.6l-3.4,16h6.9l-2.7,12.7h-6.9l-5.1,24.3c-0.7,3.5-0.6,5,2.6,5c1.5,0,2.5-0.1,3.2-0.3l-2.7,13
		c-1.7,0.2-7,0.6-9.9,0.6c-11.2,0-16.6-0.4-14-12.7l6.4-30H1.1l2.7-12.7h6L13.2,1.8z"/>
	<path class="st0" d="M49.2,61.1c3.5,0,5-3.3,7.8-16c2.6-12.7,2.5-16-1-16c-3.5,0-5,3.3-7.7,16C45.5,57.7,45.6,61.1,49.2,61.1
		 M76.5,45C73.2,60.5,68,73.8,46.4,73.8c-21.6,0-21.1-13.3-17.8-28.7c3.2-15.3,8.4-28.6,30-28.6C80.2,16.4,79.7,29.7,76.5,45"/>
	<path class="st0" d="M83,17.8h19l-1.7,8.1h0.2c3-5.2,8.3-9.5,13.6-9.5c2.1,0,2.7,0.2,3.2,0.3l-3.7,17.9c-0.7-0.1-1.5-0.2-2.4-0.3
		c-0.8-0.1-1.6-0.1-3.6-0.1c-6.8,0-9.2,3.5-10.5,10L91,72.4H71.4L83,17.8z"/>
	<path class="st0" d="M139,30.9c-3.8,0-5.2,3.9-7.5,14.2c-2.1,10.2-2.3,14.1,1.5,14.1c3.8,0,5.2-3.9,7.4-14.1
		C142.7,34.8,142.9,30.9,139,30.9 M118.1,17.8h19.3l-1.3,6.3h0.2c1.2-2.6,4.3-7.7,12.8-7.7c17,0,13.5,16.6,10.8,29.6
		c-3.3,15.3-8.2,27.8-21.8,27.8c-5.2,0-9.7-2.8-10.5-7.8h-0.2l-3.8,18.3H104L118.1,17.8z"/>
	<path class="st0" d="M190.2,34.7c1.2-5.3,0.3-6.9-2.8-6.9c-2.8,0-4.4,1.5-5.6,6.9L181,38h8.5L190.2,34.7z M177.3,55.4
		c-0.6,2.9-1.3,6.9,2.7,6.9c3.8,0,5-3.5,6.2-9.1H204c-1.5,7.5-4.6,12.6-9.2,15.8c-4.5,3.2-10.4,4.7-17,4.7
		c-21.6,0-21.1-13.3-17.8-28.7c3.2-15.3,8.4-28.6,30-28.6c22.3,0,19.6,13.9,15.9,31l-0.2,0.9h-26.8L177.3,55.4z"/>
	<path class="st0" d="M232.9,30.9c-3.8,0-5.2,3.9-7.4,14.1c-2.2,10.3-2.4,14.2,1.4,14.2c3.8,0,5.2-3.9,7.5-14.2
		C236.5,34.8,236.7,30.9,232.9,30.9 M243.6,0.3h19.6l-15.3,72h-19.3l1.3-6.3h-0.2c-1.2,2.6-4.3,7.7-12.8,7.7
		c-17,0-13.5-16.6-10.8-29.6c3.3-15.3,8.2-27.8,21.8-27.8c5.2,0,9.7,2.8,10.5,7.8h0.2L243.6,0.3z"/>
	<path class="st0" d="M275.1,61.1c3.5,0,5-3.3,7.8-16c2.6-12.7,2.5-16-1-16c-3.5,0-5,3.3-7.7,16C271.4,57.7,271.5,61.1,275.1,61.1
		 M302.4,45c-3.3,15.4-8.5,28.7-30.1,28.7c-21.6,0-21.1-13.3-17.8-28.7c3.2-15.3,8.4-28.6,30-28.6C306.1,16.4,305.6,29.7,302.4,45"
		/>
</g>
</svg>
